<svg width="16" height="16" viewBox="0 0 16 16" fill="none" xmlns="http://www.w3.org/2000/svg">
<g clip-path="url(#clip0_545_1317)">
<path d="M14.6403 0.160272H1.3595C1.21023 0.158139 1.06196 0.185539 0.923231 0.240739C0.784565 0.296005 0.658098 0.378005 0.551031 0.482072C0.444031 0.586205 0.358565 0.710339 0.299565 0.847472C0.240498 0.984605 0.209098 1.13207 0.207031 1.28134V14.7189C0.209098 14.8682 0.240498 15.0157 0.299565 15.1528C0.358631 15.2899 0.444031 15.4141 0.551031 15.5182C0.658098 15.6223 0.784565 15.7043 0.923231 15.7595C1.06196 15.8148 1.21023 15.8421 1.3595 15.84H14.6403C14.7896 15.8421 14.9378 15.8148 15.0765 15.7595C15.2153 15.7043 15.3417 15.6223 15.4488 15.5182C15.5558 15.4141 15.6412 15.2899 15.7002 15.1528C15.7593 15.0157 15.7907 14.8682 15.7928 14.7189V1.28134C15.7907 1.13207 15.7593 0.984672 15.7002 0.847472C15.6412 0.710339 15.5558 0.586205 15.4488 0.482072C15.3417 0.378005 15.2153 0.295939 15.0765 0.240739C14.9378 0.185539 14.7896 0.158139 14.6403 0.160272ZM4.9345 13.2842H2.5825V6.22834H4.9345V13.2842ZM3.7585 5.24047C3.43416 5.24047 3.1231 5.11167 2.8937 4.88227C2.66436 4.65294 2.5355 4.34187 2.5355 4.01747C2.5355 3.69314 2.66436 3.38201 2.8937 3.15267C3.1231 2.92327 3.43416 2.79447 3.7585 2.79447C3.93076 2.77494 4.10516 2.79201 4.27036 2.84454C4.43556 2.89707 4.58776 2.98394 4.71703 3.09941C4.84636 3.21487 4.94976 3.35634 5.02063 3.51454C5.09143 3.67274 5.1281 3.84414 5.1281 4.01747C5.1281 4.19081 5.09143 4.36221 5.02063 4.52041C4.94976 4.67861 4.84636 4.82007 4.71703 4.93554C4.58776 5.05101 4.43556 5.13787 4.27036 5.19041C4.10516 5.24301 3.93076 5.26001 3.7585 5.24047ZM13.4172 13.2842H11.0653V9.49754C11.0653 8.54894 10.7282 7.92961 9.87363 7.92961C9.60916 7.93154 9.35163 8.01447 9.13577 8.16727C8.9199 8.32007 8.75603 8.53534 8.6663 8.78414C8.6049 8.96841 8.5783 9.16247 8.5879 9.35641V13.2764H6.2359V6.22047H8.5879V7.21614C8.8015 6.84541 9.1123 6.53994 9.48663 6.33274C9.8611 6.12554 10.2849 6.02441 10.7125 6.04014C12.2805 6.04014 13.4172 7.05147 13.4172 9.22314V13.2842Z" fill="#DF4D20"/>
</g>
<defs>
<clipPath id="clip0_545_1317">
<rect width="16" height="16" fill="white"/>
</clipPath>
</defs>
</svg>
