<svg width="242" height="38" viewBox="0 0 242 38" fill="none" xmlns="http://www.w3.org/2000/svg">
<path d="M1.90214 18.6053C1.84594 18.8532 1.94276 19.1775 2.04922 19.3218C2.23188 19.5885 2.43127 19.6922 2.61494 19.7819C2.88015 19.9005 3.08069 19.9503 3.3523 20.0095C6.63083 20.5042 9.72807 20.2564 12.8725 20.0666C13.3641 20.0299 13.8554 19.9901 14.3464 19.9466C14.3293 22.5849 15.2333 25.3033 16.1565 27.4921C16.774 28.8815 17.4526 30.2612 18.2967 31.5283C18.6407 32.0257 19.0464 32.5644 19.6182 32.8104C19.7593 32.8748 20.1106 32.9809 20.4604 32.8847C21.1687 32.6742 21.3359 32.1102 21.4155 31.9296C21.7314 30.9158 21.6498 30.1479 21.6417 29.4136C21.4859 26.3817 20.938 23.4946 20.3495 20.6245C20.2417 20.1683 20.136 19.7121 20.031 19.2562C20.7609 19.1404 21.4907 19.0131 22.2202 18.8725C23.764 18.5685 25.3113 18.2122 26.8535 17.6772C28.0461 17.254 29.393 16.7241 30.2354 15.7144C30.5947 15.2863 30.8802 14.6541 30.7655 13.9549C30.416 12.6943 29.6352 12.5165 29.0756 12.1966C28.4704 11.9223 27.8846 11.7555 27.2841 11.6238C26.0942 11.3697 24.8913 11.2868 23.692 11.3381C21.9063 11.4246 20.048 11.8079 18.4188 12.724C17.606 9.89358 16.5656 7.10381 14.9607 4.39522C14.7187 3.98691 14.4469 3.59437 14.1238 3.24672C13.897 3.00258 13.6322 2.76655 13.2161 2.51466C12.9991 2.40699 12.813 2.30182 12.3919 2.30073C12.0242 2.28 11.5109 2.61008 11.3757 2.84218C11.024 3.37554 11.0396 3.67706 10.991 4.01396C10.9403 4.63061 10.99 5.15479 11.0542 5.69488C11.188 6.73905 11.4153 7.73655 11.6783 8.72196C12.2633 10.8826 13.038 12.9935 13.9911 15.0189C12.0269 15.3459 10.0656 15.6949 8.11631 16.1025C6.95831 16.3464 5.80127 16.6046 4.66374 16.9327C4.23469 17.0565 3.91536 17.1393 3.50265 17.3098C3.08993 17.4802 2.73125 17.5304 2.14205 18.1056C2.1106 18.1394 1.94007 18.361 1.90214 18.6053ZM18.8964 14.483C21.4204 12.8443 25.5744 12.7542 27.9057 13.6052C28.7223 13.9033 28.9758 14.7311 28.2292 15.1765C28.2292 15.1765 26.9562 15.8254 26.285 16.0646C24.1422 16.8184 21.8913 17.2521 19.6528 17.6131C19.4108 16.5667 19.1642 15.5227 18.8964 14.483ZM16.1512 19.7697C16.3943 19.7435 16.6374 19.7162 16.8804 19.6879C16.9674 19.7846 17.0612 19.9334 17.204 19.9426C17.2631 19.9465 17.321 19.9275 17.3654 19.8896C17.4098 19.8517 17.4375 19.7975 17.4429 19.7386C17.4467 19.6986 17.4398 19.6588 17.4242 19.6226C17.6894 19.5899 17.9545 19.5559 18.2196 19.5205C18.3338 20.0174 18.4465 20.5117 18.5589 21.0019C19.1399 23.8068 19.6794 26.6919 19.8246 29.4849C19.8394 29.8132 19.8423 30.2042 19.8234 30.551C19.002 29.3849 18.4056 28.0575 17.8078 26.7685C16.8621 24.5916 16.0994 22.0586 16.1512 19.7697ZM16.4117 17.8752C16.605 17.1644 16.9122 16.5013 17.3582 15.9092C17.5242 16.5663 17.6836 17.2251 17.8388 17.8821C17.3932 17.9426 16.947 17.9993 16.5002 18.0524C16.4704 17.9935 16.4409 17.9344 16.4117 17.8752ZM12.8116 5.0843C12.7722 4.4764 13.1617 4.94697 13.1617 4.94697C14.789 7.52521 15.9148 10.6406 16.8206 13.8807C16.552 14.138 16.309 14.4042 16.0897 14.6783C15.7778 14.7277 15.472 14.7766 15.1723 14.8251C15.0738 14.5452 14.9772 14.2652 14.8816 13.9863C14.2631 12.1213 13.7368 10.2275 13.3218 8.32286C13.0926 7.25615 12.851 5.69219 12.8116 5.0843ZM5.12279 18.5943C4.38829 18.5398 5.46428 18.3462 6.1776 18.1629C6.92813 17.9699 7.68498 17.8004 8.44199 17.6371C10.518 17.1899 12.6087 16.8115 14.7019 16.4542C14.763 16.5701 14.825 16.6856 14.888 16.8006C14.7103 17.2787 14.581 17.7692 14.4933 18.2675C13.912 18.3234 13.3303 18.3741 12.7485 18.42C10.2224 18.5942 6.35915 18.6861 5.12279 18.5943Z" fill="#DF4D20"/>
<path d="M60.1772 14.3555C61.038 13.6478 62.2831 13.2153 63.3062 13.4033C64.149 13.5584 64.7656 13.903 65.189 14.4092C65.5869 14.885 65.7327 15.4174 65.8159 15.7148C65.9653 16.2497 65.6526 16.8044 65.1177 16.9541C64.5829 17.1034 64.0282 16.7915 63.8784 16.2568C63.7934 15.953 63.7372 15.8095 63.646 15.7002C63.5799 15.6212 63.4184 15.4704 62.9429 15.3828C62.6468 15.3283 61.985 15.4741 61.4556 15.9092C60.9772 16.3025 60.822 16.7341 61.0005 17.2168C61.2028 17.7637 61.7541 18.0827 62.7778 18.5352C63.2195 18.7304 63.7821 18.9686 64.2446 19.2822C64.7296 19.6112 65.2246 20.1004 65.4048 20.8525C65.5592 21.4977 65.4699 22.1751 65.0835 22.7715C64.7093 23.3489 64.1107 23.7684 63.3862 24.0488C61.9578 24.6016 59.7931 24.7127 56.8276 24.2285C56.2795 24.1389 55.9082 23.6224 55.9976 23.0742C56.0873 22.5262 56.6037 22.1547 57.1519 22.2441C59.9814 22.7062 61.725 22.535 62.6606 22.1729C63.1177 21.9959 63.3159 21.7996 63.395 21.6777C63.4616 21.5749 63.4827 21.4689 63.4478 21.3223C63.4278 21.239 63.3697 21.1212 63.1147 20.9482C62.8371 20.76 62.4715 20.6001 61.9644 20.376C61.5155 20.1776 60.9199 19.9196 60.3726 19.5186C60.1683 19.9115 59.9169 20.2497 59.6206 20.5234C58.8408 21.2435 57.7831 21.4781 56.8286 21.0566C56.19 20.7745 55.7026 20.2481 55.396 19.5723C54.5594 20.4684 53.5041 21.0378 52.4331 20.8506C51.2174 20.6377 50.5533 19.5745 50.4058 18.377C50.3643 18.0404 50.3596 17.6781 50.3911 17.292C49.092 18.4055 47.6715 19.7588 46.2515 21.2148C46.2323 21.2642 46.2143 21.3147 46.1948 21.3643C44.4286 25.8552 41.3583 31.6291 39.1753 35.0791C38.3842 36.3293 37.6497 37.1982 36.9624 37.6211C36.6131 37.8359 36.1297 38.0243 35.5991 37.8984C35.0307 37.7634 34.7028 37.3419 34.5386 36.9678C34.2418 36.2912 34.281 35.373 34.4399 34.5195C34.6097 33.6082 34.9572 32.5593 35.4761 31.502C36.5101 29.3948 39.2374 25.8887 42.2681 22.5244C42.9995 21.7125 43.7562 20.9 44.52 20.1094C44.8535 19.2274 45.1243 18.4208 45.313 17.7178C45.5429 16.8609 45.6329 16.2321 45.6138 15.834C45.6124 15.8061 45.6099 15.7805 45.6079 15.7578C45.4457 15.8063 45.2119 15.9069 44.896 16.0908C43.1053 17.1336 41.0283 18.7662 39.3735 20.166C38.5524 20.8607 37.8459 21.4884 37.3452 21.9424C37.0952 22.1691 36.8966 22.3526 36.7612 22.4785C36.6936 22.5414 36.6417 22.5904 36.6069 22.623C36.5896 22.6393 36.5764 22.6521 36.5679 22.6602C36.5637 22.6641 36.5601 22.6671 36.5581 22.6689L36.5552 22.6719C36.1521 23.0537 35.5155 23.0366 35.1333 22.6338C34.7509 22.2308 34.7674 21.5934 35.1704 21.2109H35.1714L35.186 21.1963C35.1958 21.1871 35.2106 21.1745 35.229 21.1572C35.2662 21.1223 35.3208 21.0712 35.3911 21.0059C35.532 20.8749 35.7367 20.6851 35.9937 20.4521C36.5073 19.9864 37.2312 19.3427 38.0737 18.6299C39.7472 17.2141 41.9341 15.4866 43.8833 14.3516C44.3081 14.1042 44.7177 13.9143 45.1069 13.8076C45.4916 13.7023 45.929 13.6589 46.3569 13.793C47.3507 14.1048 47.5913 15.069 47.6235 15.7363C47.6444 16.1684 47.5946 16.6576 47.4985 17.1797C48.8725 15.9038 50.1933 14.7932 51.3501 13.9775C51.3601 13.9559 51.3702 13.9338 51.3804 13.9121L52.2915 14.3379L53.2026 14.7646C52.4774 16.3151 52.3173 17.4442 52.4019 18.1309C52.486 18.8141 52.7505 18.864 52.7798 18.8691C52.9049 18.8907 53.3608 18.8442 54.0015 18.1182C54.4103 17.6548 54.837 16.9669 55.2144 16.0215C55.3397 15.4702 55.5265 14.8849 55.7808 14.2686L57.6851 14.9014C57.5286 15.5144 57.3477 16.0798 57.1489 16.5986C57.0097 17.2722 57.004 17.8108 57.0728 18.2168C57.1885 18.9001 57.4853 19.1479 57.6411 19.2168C57.7755 19.2761 57.9906 19.2893 58.2544 19.0459C58.5262 18.7948 58.8531 18.2402 58.9419 17.2256C58.7755 16.0011 59.4059 14.9898 60.1772 14.3555ZM41.9087 25.9951C39.7236 28.5792 37.9891 30.9463 37.2817 32.3877C36.8346 33.2988 36.5523 34.1745 36.4194 34.8877C36.3743 35.1302 36.3485 35.3464 36.3374 35.5332C36.6242 35.2301 37.0057 34.7447 37.4751 34.0029C38.7886 31.927 40.4362 28.9741 41.9087 25.9951ZM69.9917 11.1348C70.2634 10.6503 70.8763 10.4766 71.3608 10.748C71.8451 11.0198 72.017 11.6327 71.7456 12.1172C71.4928 12.5681 71.2177 13.0852 70.9331 13.6416C71.6175 13.3473 72.3025 13.0539 72.9868 12.7598C73.0671 12.7252 73.1437 12.6918 73.2241 12.6572C73.469 12.552 73.746 12.548 73.9937 12.6465C74.2413 12.7452 74.44 12.9388 74.5454 13.1836C74.6508 13.4287 74.6549 13.7063 74.5562 13.9541C74.4573 14.2018 74.2641 14.4005 74.019 14.5059C73.9387 14.5404 73.8619 14.573 73.7817 14.6074C72.397 15.2026 71.0103 15.7973 69.6255 16.3926C68.937 17.9229 68.3186 19.1568 68.0483 20.2031C67.908 20.7465 67.9061 21.0995 67.9683 21.3242C68.0162 21.4971 68.121 21.6734 68.4497 21.8457C68.4924 21.8681 68.6358 21.9172 68.9517 21.8945C69.257 21.8725 69.6433 21.7894 70.1011 21.6445C71.0167 21.3548 72.0848 20.8572 73.1245 20.3027C74.1566 19.7523 75.1268 19.1641 75.8413 18.7119C76.1978 18.4863 76.4898 18.2958 76.6909 18.1621C76.7912 18.0955 76.8692 18.0432 76.9214 18.0078C76.9475 17.9901 76.9671 17.9756 76.98 17.9668C76.9862 17.9625 76.9907 17.9591 76.9937 17.957C76.9952 17.956 76.9969 17.9555 76.9976 17.9551H76.9985C77.4557 17.64 78.0814 17.7541 78.397 18.2109C78.6927 18.6396 78.6103 19.2173 78.2222 19.5479L78.1401 19.6104L78.1333 19.6152C78.1292 19.618 78.1232 19.6228 78.1157 19.6279C78.1006 19.6383 78.0785 19.6537 78.0503 19.6729C77.9933 19.7115 77.9097 19.7668 77.8042 19.8369C77.5924 19.9777 77.2884 20.1774 76.9175 20.4121C76.1772 20.8806 75.1619 21.4967 74.0718 22.0781C72.9888 22.6557 71.7957 23.2194 70.7085 23.5635C70.1652 23.7354 69.6135 23.8631 69.0952 23.9004C68.5878 23.9368 68.021 23.8924 67.5161 23.6279C66.7499 23.2264 66.2411 22.627 66.0288 21.8594C65.831 21.1436 65.9218 20.3908 66.1001 19.7002C66.4464 18.3595 67.2861 16.7197 67.9507 15.2158C68.6203 13.7006 69.374 12.2364 69.9917 11.1348Z" fill="#DF4D20"/>
<path d="M91.4004 17.2919C91.4004 17.2919 91.8779 13.9032 89.9499 13.4198C88.0219 12.9364 84.9899 14.616 84.5064 19.4508C84.023 24.2856 87.7803 24.065 89.4665 23.3354C91.1527 22.6057 97.1928 17.1035 97.1928 17.1035" stroke="#DF4D20" stroke-width="2.01194" stroke-linecap="round"/>
<path d="M96.8556 17.8966C97.2264 16.9883 99.2017 14.6573 100.054 14.4483C100.907 14.2394 101.333 15.0753 101.333 15.0753C102.612 17.2696 102.738 21.3448 99.4133 21.3448C96.5354 21.3448 96.2157 19.464 96.8556 17.8966Z" stroke="#DF4D20" stroke-width="2.01194"/>
<path d="M198.336 17.1218C198.746 16.1108 200.927 13.5159 201.868 13.2833C202.81 13.0507 203.28 13.9812 203.28 13.9812C204.693 16.4239 204.832 20.9603 201.161 20.9603C197.983 20.9603 197.63 18.8666 198.336 17.1218Z" stroke="#DF4D20" stroke-width="2.01194"/>
<path d="M144.363 17.545C144.732 16.6358 146.701 14.2997 147.553 14.0884C148.405 13.8772 148.833 14.7121 148.833 14.7121C150.118 16.9031 150.255 20.9779 146.93 20.9866C144.052 20.9941 143.727 19.1141 144.363 17.545Z" stroke="#DF4D20" stroke-width="2.01194"/>
<path d="M100.161 13.3407C101.521 15.3198 105.071 14.8497 108.424 13.6201" stroke="#DF4D20" stroke-width="2.01194" stroke-linecap="round"/>
<path d="M109.571 13.9165C109.705 13.3773 109.376 12.8317 108.837 12.6979C108.298 12.5642 107.752 12.8929 107.618 13.4321L108.595 13.6743L109.571 13.9165ZM106.49 22.161L105.513 21.9188L107.312 22.7409L106.49 22.161ZM117.244 13.6312L116.33 14.0514L117.244 13.6312ZM116.38 22.2795L115.392 22.0866L117.232 22.8142L116.38 22.2795ZM139.157 20.4676L139.442 19.5029L139.157 20.4676ZM148.049 16.2079C148.397 15.7753 148.329 15.142 147.897 14.7934C147.464 14.4447 146.831 14.5127 146.482 14.9453L147.265 15.5766L148.049 16.2079ZM108.595 13.6743L107.618 13.4321L105.513 21.9188L106.49 22.161L107.466 22.4032L109.571 13.9165L108.595 13.6743ZM106.49 22.161C107.312 22.7409 107.312 22.7409 107.312 22.7409C107.312 22.7409 107.312 22.7408 107.312 22.7407C107.312 22.7406 107.312 22.7404 107.312 22.7401C107.313 22.7394 107.313 22.7385 107.314 22.7372C107.316 22.7347 107.319 22.7308 107.322 22.7257C107.33 22.7155 107.34 22.7001 107.355 22.68C107.383 22.6397 107.425 22.5801 107.48 22.5033C107.589 22.3496 107.747 22.127 107.944 21.8518C108.338 21.3014 108.885 20.5411 109.498 19.702C110.731 18.016 112.211 16.0384 113.255 14.7968L112.485 14.1496L111.715 13.5024C110.622 14.8023 109.105 16.8304 107.874 18.5147C107.256 19.3608 106.704 20.1268 106.308 20.6814C106.109 20.9587 105.95 21.1833 105.839 21.3387C105.784 21.4164 105.741 21.4768 105.712 21.5178C105.698 21.5384 105.687 21.5541 105.679 21.5647C105.675 21.57 105.673 21.574 105.671 21.5768C105.67 21.5781 105.669 21.5792 105.668 21.5799C105.668 21.5802 105.668 21.5805 105.668 21.5807C105.668 21.5808 105.668 21.5809 105.668 21.5809C105.668 21.581 105.668 21.581 106.49 22.161ZM112.485 14.1496L113.255 14.7968C114.254 13.608 115.001 13.3004 115.401 13.2853C115.694 13.2743 116.039 13.4191 116.33 14.0514L117.244 13.6312L118.158 13.2111C117.643 12.0908 116.676 11.224 115.325 11.2748C114.081 11.3217 112.852 12.1496 111.715 13.5024L112.485 14.1496ZM117.244 13.6312L116.33 14.0514C116.316 14.0216 116.353 14.1078 116.368 14.4142C116.381 14.6847 116.375 15.0356 116.349 15.4518C116.298 16.2818 116.176 17.2925 116.033 18.2845C115.891 19.2725 115.731 20.224 115.606 20.9298C115.543 21.2823 115.49 21.5725 115.452 21.7742C115.433 21.875 115.418 21.9537 115.408 22.0069C115.403 22.0334 115.399 22.0537 115.396 22.0671C115.395 22.0738 115.394 22.0788 115.393 22.0821C115.393 22.0837 115.393 22.0849 115.392 22.0857C115.392 22.0861 115.392 22.0863 115.392 22.0865C115.392 22.0866 115.392 22.0866 115.392 22.0866C115.392 22.0866 115.392 22.0866 116.38 22.2795C117.367 22.4723 117.367 22.4722 117.367 22.4721C117.367 22.4721 117.367 22.4719 117.367 22.4718C117.367 22.4715 117.367 22.4711 117.367 22.4706C117.367 22.4695 117.368 22.468 117.368 22.4661C117.369 22.4623 117.37 22.4567 117.371 22.4494C117.374 22.4348 117.378 22.4134 117.384 22.3855C117.394 22.3299 117.41 22.2485 117.429 22.1449C117.468 21.9376 117.523 21.6408 117.587 21.2809C117.714 20.5619 117.878 19.5876 118.025 18.571C118.17 17.5584 118.301 16.4858 118.357 15.5762C118.385 15.1225 118.396 14.6895 118.378 14.3148C118.361 13.976 118.316 13.5558 118.158 13.2111L117.244 13.6312ZM116.38 22.2795C117.232 22.8142 117.232 22.8143 117.232 22.8143C117.232 22.8143 117.232 22.8142 117.232 22.8141C117.232 22.8139 117.232 22.8135 117.232 22.8129C117.233 22.8117 117.234 22.8098 117.236 22.8072C117.239 22.802 117.244 22.7939 117.251 22.7832C117.265 22.7616 117.286 22.7292 117.313 22.6869C117.367 22.6021 117.447 22.4777 117.55 22.3207C117.755 22.0067 118.049 21.5636 118.405 21.0496C119.119 20.0171 120.067 18.717 121.024 17.6044C121.503 17.0478 121.972 16.553 122.405 16.1665C122.851 15.7679 123.199 15.5383 123.437 15.4441C123.663 15.3544 123.571 15.4583 123.442 15.3503C123.402 15.3165 123.553 15.4264 123.626 16.0864L124.625 15.9759L125.625 15.8654C125.538 15.0724 125.311 14.2896 124.732 13.806C124.064 13.2482 123.272 13.345 122.695 13.5739C122.13 13.7982 121.572 14.2127 121.064 14.6662C120.543 15.132 120.011 15.6975 119.499 16.2921C118.475 17.4819 117.482 18.8474 116.75 19.905C116.383 20.4359 116.079 20.8939 115.866 21.2197C115.759 21.3827 115.675 21.5129 115.618 21.6028C115.589 21.6477 115.567 21.6827 115.552 21.7066C115.544 21.7186 115.538 21.7278 115.534 21.7342C115.532 21.7374 115.531 21.7399 115.529 21.7416C115.529 21.7425 115.528 21.7432 115.528 21.7437C115.528 21.744 115.528 21.7442 115.528 21.7444C115.528 21.7446 115.528 21.7447 116.38 22.2795ZM124.625 15.9759L123.626 16.0864C123.784 17.5161 123.832 18.5278 123.81 19.2411C123.787 19.9719 123.693 20.3064 123.631 20.4396C123.6 20.5065 123.626 20.4435 123.697 20.4215C123.699 20.4209 123.693 20.4229 123.675 20.4258C123.656 20.4288 123.63 20.4319 123.59 20.4352C123.558 20.4377 123.35 20.4497 123.238 20.462L123.348 21.4619L123.459 22.4618C123.557 22.4509 123.567 22.4556 123.752 22.4405C123.887 22.4297 124.081 22.4086 124.29 22.344C124.78 22.1927 125.193 21.8538 125.456 21.2873C125.688 20.7871 125.795 20.1308 125.821 19.3026C125.847 18.457 125.788 17.3416 125.625 15.8654L124.625 15.9759ZM123.348 21.4619L123.238 20.462C123.379 20.4464 123.581 20.4618 123.783 20.5786C123.983 20.6938 124.094 20.8555 124.149 20.9732C124.239 21.1662 124.215 21.308 124.218 21.259C124.222 21.207 124.255 21.0347 124.363 20.7204C124.568 20.1238 124.954 19.2673 125.464 18.3499C125.973 17.4351 126.584 16.4965 127.225 15.7249C127.884 14.9309 128.497 14.4099 128.987 14.2001L128.591 13.2753L128.195 12.3505C127.26 12.7506 126.4 13.5696 125.677 14.4395C124.936 15.3319 124.257 16.3811 123.706 17.3721C123.156 18.3606 122.714 19.3277 122.46 20.0668C122.338 20.4203 122.234 20.7938 122.211 21.1148C122.201 21.2524 122.192 21.5375 122.325 21.8242C122.402 21.9889 122.542 22.1851 122.779 22.3216C123.018 22.4597 123.265 22.4833 123.459 22.4618L123.348 21.4619ZM128.591 13.2753L128.987 14.2001C129.197 14.1103 129.137 14.1992 128.98 14.1202C128.844 14.0519 128.867 13.9712 128.926 14.1525C129.051 14.5383 129.072 15.2632 129.009 16.2392C128.979 16.7011 128.934 17.1783 128.889 17.6502C128.845 18.115 128.799 18.5819 128.772 18.9956C128.746 19.3983 128.732 19.8111 128.767 20.1543C128.785 20.3228 128.82 20.5365 128.905 20.7437C128.987 20.9422 129.179 21.283 129.595 21.4484L129.966 20.5134L130.337 19.5783C130.643 19.6995 130.748 19.9355 130.765 19.977C130.786 20.0271 130.777 20.0316 130.769 19.947C130.752 19.7841 130.754 19.5152 130.78 19.1274C130.805 18.7506 130.847 18.3183 130.892 17.8417C130.937 17.3722 130.985 16.8659 131.017 16.3689C131.078 15.4272 131.1 14.3326 130.84 13.531C130.706 13.1186 130.439 12.6021 129.884 12.3228C129.307 12.0327 128.698 12.1352 128.195 12.3505L128.591 13.2753ZM129.966 20.5134L129.595 21.4484C130.033 21.622 130.42 21.4839 130.614 21.3879C130.818 21.2867 130.988 21.1455 131.114 21.0277C131.372 20.7867 131.642 20.456 131.898 20.1189C132.162 19.7726 132.448 19.3705 132.737 18.9636C133.03 18.5515 133.328 18.1304 133.629 17.7249C134.253 16.8852 134.808 16.2275 135.241 15.9037C135.466 15.7355 135.516 15.7674 135.429 15.7677C135.236 15.7682 135.155 15.6332 135.191 15.6925L136.049 15.1664L136.906 14.6403C136.596 14.1345 136.093 13.7538 135.423 13.7558C134.859 13.7574 134.377 14.0377 134.036 14.2925C133.338 14.8147 132.626 15.7013 132.014 16.5252C131.698 16.9515 131.386 17.3918 131.097 17.7987C130.804 18.2107 130.538 18.5849 130.298 18.8998C130.051 19.224 129.866 19.4395 129.74 19.5574C129.674 19.619 129.67 19.6103 129.719 19.5857C129.758 19.5663 130.011 19.4489 130.337 19.5783L129.966 20.5134ZM136.049 15.1664L135.191 15.6925C135.828 16.7304 136.146 17.7819 136.592 18.869C136.982 19.8218 137.562 21.0454 138.872 21.4323L139.157 20.4676L139.442 19.5029C139.15 19.4167 138.869 19.1198 138.453 18.1053C138.092 17.2252 137.656 15.8626 136.906 14.6403L136.049 15.1664ZM139.157 20.4676L138.872 21.4323C140.038 21.7771 141.229 21.501 142.255 21.0406C143.291 20.5757 144.28 19.8695 145.119 19.1658C145.964 18.4571 146.693 17.7207 147.209 17.1647C147.468 16.8857 147.675 16.6498 147.819 16.4822C147.891 16.3984 147.947 16.3316 147.985 16.2848C148.005 16.2614 148.02 16.2431 148.03 16.2301C148.036 16.2237 148.04 16.2185 148.043 16.2148C148.044 16.2129 148.046 16.2114 148.047 16.2103C148.047 16.2097 148.048 16.2092 148.048 16.2088C148.048 16.2086 148.048 16.2084 148.048 16.2083C148.048 16.2081 148.049 16.2079 147.265 15.5766C146.482 14.9453 146.482 14.9451 146.482 14.945C146.482 14.945 146.482 14.9449 146.482 14.9449C146.482 14.9448 146.482 14.9449 146.482 14.945C146.482 14.9453 146.482 14.9459 146.481 14.9469C146.479 14.9488 146.477 14.9521 146.473 14.9567C146.465 14.966 146.453 14.9806 146.437 15C146.405 15.039 146.356 15.0976 146.291 15.1728C146.162 15.3232 145.973 15.5393 145.734 15.7966C145.255 16.313 144.588 16.9858 143.826 17.6241C143.059 18.2675 142.231 18.8461 141.431 19.2051C140.621 19.5686 139.958 19.6553 139.442 19.5029L139.157 20.4676Z" fill="#DF4D20"/>
<path d="M153.582 12.0736C153.582 12.0736 153.973 12.353 153.973 14.1973C153.973 16.0416 152.241 21.8354 152.241 21.8354C155.372 16.4525 162.49 8.01769 162.49 17.4709C162.49 21.399 167.045 21.6899 168.895 17.9074" stroke="#DF4D20" stroke-width="2.01194" stroke-linecap="round"/>
<path d="M188.584 17.3953C196.455 16.833 194.701 11.3781 190.833 13.7411C185.772 16.833 188.279 24.8661 196.487 19.7562C208.878 12.0418 201.983 13.2472 201.983 13.2472" stroke="#DF4D20" stroke-width="2.01194" stroke-linecap="round"/>
<path d="M227.206 19.3524C234.29 15.8751 230.616 11.4784 227.918 15.1208C224.389 19.887 228.651 25.5882 235.634 18.9015C237.882 16.7496 239.965 14.9613 239.965 14.9613" stroke="#DF4D20" stroke-width="2.01194" stroke-linecap="round"/>
<path d="M178.796 12.0889C178.796 11.5333 178.345 11.0829 177.79 11.0829C177.234 11.0829 176.784 11.5333 176.784 12.0889H177.79H178.796ZM173.198 35.7623L172.21 35.5758C172.107 36.1212 172.465 36.6469 173.01 36.7505C173.556 36.8542 174.082 36.4966 174.186 35.9515L173.198 35.7623ZM183.594 13.2497L183.087 14.1187L183.594 13.2497ZM188.945 18.3955C189.499 18.3529 189.914 17.8693 189.871 17.3153C189.828 16.7614 189.345 16.3469 188.791 16.3895L188.868 17.3925L188.945 18.3955ZM177.79 12.0889H176.784C176.784 12.0018 176.798 11.9353 176.786 12.0123C176.781 12.045 176.772 12.0954 176.76 12.1657C176.736 12.3052 176.699 12.5055 176.651 12.7617C176.556 13.2731 176.418 13.9956 176.248 14.8753C175.908 16.6341 175.443 19.014 174.942 21.575C173.94 26.6947 172.791 32.5392 172.21 35.5731L173.198 35.7623L174.186 35.9515C174.766 32.923 175.913 27.0856 176.917 21.9616C177.418 19.4007 177.883 17.0183 178.223 15.2566C178.393 14.376 178.532 13.6486 178.629 13.131C178.677 12.8726 178.715 12.6635 178.742 12.5125C178.755 12.4377 178.766 12.3727 178.774 12.3213C178.775 12.3143 178.796 12.1953 178.796 12.0889H177.79ZM173.198 35.7623L174.187 35.9488C174.826 32.5603 176.272 26.3255 178.114 21.2901C179.04 18.7567 180.036 16.6155 181.032 15.2865C181.533 14.6176 181.968 14.2447 182.312 14.086C182.594 13.9559 182.816 13.9605 183.087 14.1187L183.594 13.2497L184.101 12.3808C183.232 11.8737 182.314 11.8692 181.469 12.2593C180.686 12.6208 180.008 13.2973 179.421 14.0801C178.242 15.6547 177.165 18.0261 176.224 20.599C174.331 25.7761 172.86 32.1281 172.21 35.5758L173.198 35.7623ZM183.594 13.2497L183.087 14.1187C183.726 14.4912 183.933 14.9405 183.958 15.4311C183.986 15.9949 183.771 16.7101 183.327 17.4815C182.892 18.2384 182.29 18.9581 181.685 19.5042C181.044 20.0832 180.537 20.345 180.313 20.387L180.498 21.3758L180.684 22.3645C181.473 22.2167 182.324 21.6386 183.034 20.997C183.781 20.3224 184.522 19.4406 185.071 18.4843C185.613 17.5425 186.023 16.4329 185.967 15.3293C185.908 14.1525 185.32 13.0917 184.101 12.3808L183.594 13.2497ZM180.498 21.3758L180.313 20.387C180.138 20.4198 180.254 20.3526 180.457 20.4724C180.585 20.5477 180.706 20.677 180.771 20.851C180.831 21.0112 180.817 21.1404 180.806 21.196C180.789 21.2847 180.769 21.251 180.9 21.0973C181.015 20.9616 181.207 20.7812 181.493 20.5747C182.646 19.7433 185.054 18.6948 188.945 18.3955L188.868 17.3925L188.791 16.3895C184.633 16.7093 181.843 17.8424 180.317 18.9427C179.933 19.2192 179.612 19.5061 179.367 19.7938C179.138 20.0636 178.911 20.4093 178.832 20.8053C178.791 21.0145 178.784 21.2793 178.886 21.5535C178.993 21.8415 179.193 22.0631 179.435 22.2056C179.867 22.4599 180.352 22.4266 180.684 22.3645L180.498 21.3758Z" fill="#DF4D20"/>
<path d="M208.504 12.0889H209.51C209.51 11.6558 209.232 11.2714 208.822 11.1345C208.411 10.9976 207.958 11.139 207.699 11.4854L208.504 12.0889ZM203.334 36.0516L202.329 36.0116C202.308 36.5376 202.696 36.9908 203.219 37.0509C203.742 37.1111 204.223 36.7578 204.322 36.2408L203.334 36.0516ZM214.308 13.2497L213.717 14.0641L214.308 13.2497ZM208.142 17.9368C207.724 17.5712 207.088 17.614 206.723 18.0323C206.357 18.4506 206.4 19.0861 206.818 19.4517L207.48 18.6943L208.142 17.9368ZM199.24 15.8191C198.691 15.7366 198.178 16.1152 198.096 16.6647C198.014 17.2141 198.392 17.7263 198.942 17.8087L199.091 16.8139L199.24 15.8191ZM208.504 12.0889H207.498C207.498 12.0365 207.502 11.9973 207.503 11.9916C207.504 11.9788 207.505 11.9707 207.505 11.9699C207.506 11.9681 207.505 11.9737 207.502 11.9903C207.496 12.0223 207.486 12.0727 207.472 12.1439C207.444 12.285 207.401 12.4879 207.345 12.7481C207.234 13.2674 207.074 14.001 206.877 14.8946C206.482 16.6828 205.946 19.0958 205.372 21.696C204.226 26.8848 202.929 32.8141 202.346 35.8624L203.334 36.0516L204.322 36.2408C204.899 33.2268 206.188 27.3295 207.336 22.1299C207.909 19.5359 208.448 17.1142 208.841 15.3277C209.038 14.4338 209.2 13.6951 209.313 13.1694C209.369 12.9071 209.414 12.6944 209.444 12.5408C209.46 12.4647 209.473 12.398 209.482 12.345C209.487 12.319 209.492 12.2901 209.496 12.2619C209.497 12.2571 209.51 12.1779 209.51 12.0889H208.504ZM203.334 36.0516L204.339 36.0915C204.48 32.5439 205.56 25.7483 207.409 20.4612C208.341 17.7956 209.421 15.6561 210.574 14.4767C211.14 13.8981 211.654 13.6225 212.107 13.5541C212.535 13.4895 213.059 13.5868 213.717 14.0641L214.308 13.2497L214.899 12.4354C213.91 11.7184 212.865 11.4051 211.807 11.5647C210.775 11.7204 209.885 12.3038 209.136 13.0702C207.659 14.5807 206.462 17.0752 205.51 19.7971C203.591 25.2851 202.477 32.2788 202.329 36.0116L203.334 36.0516ZM214.308 13.2497L213.717 14.0641C214.267 14.4626 214.532 15.0846 214.511 15.8425C214.489 16.6177 214.16 17.4727 213.585 18.1468C213.018 18.813 212.256 19.253 211.391 19.3103C210.534 19.3669 209.425 19.0581 208.142 17.9368L207.48 18.6943L206.818 19.4517C208.404 20.8376 210.018 21.4174 211.524 21.3178C213.02 21.2188 214.26 20.4577 215.117 19.4516C215.967 18.4534 216.487 17.1648 216.522 15.899C216.558 14.6159 216.09 13.2993 214.899 12.4354L214.308 13.2497ZM208.504 12.0889C207.699 11.4854 207.699 11.4854 207.699 11.4853C207.699 11.4853 207.699 11.4853 207.699 11.4853C207.699 11.4853 207.699 11.4853 207.699 11.4854C207.699 11.4857 207.698 11.4861 207.698 11.4868C207.697 11.4881 207.695 11.4904 207.693 11.4935C207.688 11.4998 207.681 11.5095 207.671 11.5225C207.651 11.5485 207.621 11.5875 207.582 11.638C207.504 11.7389 207.389 11.8851 207.246 12.0632C206.958 12.4203 206.557 12.9014 206.103 13.4008C205.646 13.9026 205.148 14.4095 204.665 14.8249C204.165 15.2556 203.753 15.5239 203.468 15.6289L203.816 16.5728L204.164 17.5168C204.795 17.2843 205.427 16.8233 205.977 16.35C206.545 15.8614 207.104 15.2895 207.591 14.7546C208.08 14.2174 208.507 13.7041 208.812 13.3259C208.965 13.1363 209.088 12.9797 209.173 12.8697C209.215 12.8147 209.249 12.7713 209.272 12.7411C209.283 12.7261 209.292 12.7143 209.298 12.7061C209.301 12.702 209.304 12.6988 209.305 12.6965C209.306 12.6953 209.307 12.6944 209.307 12.6937C209.308 12.6933 209.308 12.6931 209.308 12.6928C209.308 12.6927 209.308 12.6926 209.308 12.6925C209.308 12.6924 209.308 12.6923 208.504 12.0889ZM203.816 16.5728L203.468 15.6289C202.738 15.898 201.714 15.9642 200.792 15.9408C200.346 15.9296 199.953 15.8985 199.672 15.8702C199.532 15.8561 199.421 15.8429 199.346 15.8333C199.309 15.8286 199.281 15.8248 199.263 15.8223C199.254 15.821 199.247 15.8201 199.243 15.8195C199.241 15.8193 199.24 15.8191 199.24 15.819C199.239 15.819 199.239 15.8189 199.239 15.819C199.239 15.819 199.239 15.819 199.24 15.819C199.24 15.819 199.24 15.819 199.24 15.819C199.24 15.819 199.24 15.8191 199.091 16.8139C198.942 17.8087 198.942 17.8088 198.942 17.8088C198.942 17.8088 198.942 17.8088 198.942 17.8089C198.943 17.8089 198.943 17.809 198.943 17.809C198.944 17.8091 198.945 17.8093 198.946 17.8094C198.948 17.8098 198.951 17.8102 198.955 17.8107C198.962 17.8118 198.972 17.8132 198.985 17.815C199.01 17.8185 199.046 17.8233 199.091 17.8291C199.182 17.8407 199.311 17.856 199.471 17.8721C199.789 17.9041 200.234 17.9393 200.741 17.9521C201.723 17.977 203.062 17.9227 204.164 17.5168L203.816 16.5728Z" fill="#DF4D20"/>
<path d="M224.884 1.006L225.667 0.375314C225.459 0.11686 225.137 -0.0224328 224.807 0.0029895C224.476 0.0284118 224.179 0.21528 224.013 0.502482L224.884 1.006ZM227.82 20.312C228.327 20.0851 228.555 19.4901 228.328 18.9829C228.101 18.4758 227.506 18.2485 226.999 18.4754L227.409 19.3937L227.82 20.312ZM218.632 13.077C218.27 13.4985 218.318 14.1336 218.739 14.4956C219.161 14.8575 219.796 14.8093 220.158 14.3878L219.395 13.7324L218.632 13.077ZM224.884 1.006C224.013 0.502482 224.013 0.502644 224.013 0.502861C224.013 0.503006 224.012 0.503278 224.012 0.503568C224.012 0.504148 224.011 0.504946 224.011 0.50596C224.01 0.507988 224.008 0.510881 224.006 0.514626C224.002 0.522117 223.995 0.533019 223.987 0.547239C223.971 0.575677 223.947 0.617387 223.916 0.671613C223.855 0.780059 223.766 0.938604 223.653 1.1412C223.429 1.5463 223.111 2.12798 222.739 2.83777C221.996 4.25563 221.029 6.19267 220.141 8.25894C219.257 10.3172 218.435 12.5418 218.001 14.5259C217.785 15.5179 217.657 16.4847 217.68 17.3603C217.703 18.2273 217.876 19.0889 218.34 19.7941L219.18 19.2409L220.02 18.6877C219.84 18.4146 219.709 17.9726 219.691 17.3073C219.674 16.6507 219.77 15.8566 219.967 14.9557C220.361 13.1539 221.126 11.0642 221.99 9.05298C222.85 7.04969 223.793 5.16176 224.521 3.77202C224.885 3.07802 225.195 2.51025 225.413 2.11686C225.522 1.9202 225.608 1.76723 225.666 1.66398C225.696 1.61236 225.718 1.57317 225.733 1.54717C225.74 1.53418 225.746 1.52448 225.75 1.51817C225.751 1.51502 225.753 1.51271 225.754 1.51127C225.754 1.51055 225.754 1.51004 225.755 1.50975C225.755 1.5096 225.755 1.50955 225.755 1.50947C225.755 1.50947 225.755 1.50953 224.884 1.006ZM219.18 19.2409L218.34 19.7941C219.103 20.9526 220.056 21.6412 221.106 21.9522C222.134 22.2566 223.166 22.1737 224.069 21.9542C224.973 21.7346 225.803 21.3647 226.457 21.0338C226.786 20.8676 227.08 20.7063 227.316 20.577C227.569 20.4385 227.723 20.3555 227.82 20.312L227.409 19.3937L226.999 18.4754C226.81 18.5598 226.573 18.6903 226.35 18.8121C226.11 18.9432 225.844 19.0891 225.549 19.2383C224.956 19.5382 224.283 19.8318 223.594 19.9992C222.905 20.1667 222.256 20.1942 221.678 20.0231C221.122 19.8586 220.546 19.4858 220.02 18.6877L219.18 19.2409ZM224.884 1.006L224.1 1.63669C224.578 2.23077 224.78 2.796 224.796 3.39005C224.812 4.00895 224.627 4.74807 224.171 5.67366C223.244 7.55695 221.364 9.8949 218.632 13.077L219.395 13.7324L220.158 14.3878C222.851 11.2514 224.916 8.71711 225.976 6.56227C226.515 5.4688 226.835 4.39739 226.807 3.33781C226.779 2.25337 226.389 1.27215 225.667 0.375314L224.884 1.006Z" fill="#DF4D20"/>
<path d="M49.6703 11.1516C48.8254 11.8912 47.8612 11.6846 47.2189 10.9508C46.5765 10.217 46.4992 9.23403 47.3441 8.49435C48.1891 7.75466 49.3948 7.74986 50.0371 8.48363C50.6795 9.2174 50.5152 10.4119 49.6703 11.1516Z" fill="#DF4D20"/>
</svg>
