<svg width="33" height="34" viewBox="0 0 33 34" fill="none" xmlns="http://www.w3.org/2000/svg">
<path d="M1.90214 17.6366C1.84594 17.8845 1.94276 18.2087 2.04922 18.353C2.23188 18.6198 2.43127 18.7234 2.61494 18.8131C2.88015 18.9318 3.08069 18.9815 3.3523 19.0407C6.63083 19.5354 9.72807 19.2876 12.8725 19.0978C13.3641 19.0612 13.8554 19.0213 14.3464 18.9779C14.3293 21.6161 15.2333 24.3346 16.1565 26.5234C16.774 27.9128 17.4526 29.2924 18.2967 30.5595C18.6407 31.0569 19.0464 31.5957 19.6182 31.8416C19.7593 31.9061 20.1106 32.0122 20.4604 31.9159C21.1687 31.7055 21.3359 31.1414 21.4155 30.9609C21.7314 29.9471 21.6498 29.1792 21.6417 28.4449C21.4859 25.4129 20.938 22.5259 20.3495 19.6557C20.2417 19.1995 20.136 18.7434 20.031 18.2875C20.7609 18.1716 21.4907 18.0443 22.2202 17.9037C23.764 17.5998 25.3113 17.2435 26.8535 16.7085C28.0461 16.2852 29.393 15.7553 30.2354 14.7457C30.5947 14.3176 30.8802 13.6853 30.7655 12.9862C30.416 11.7256 29.6352 11.5478 29.0756 11.2279C28.4704 10.9535 27.8846 10.7867 27.2841 10.6551C26.0942 10.401 24.8913 10.318 23.692 10.3693C21.9063 10.4559 20.048 10.8392 18.4188 11.7552C17.606 8.92483 16.5656 6.13506 14.9607 3.42647C14.7187 3.01816 14.4469 2.62562 14.1238 2.27797C13.897 2.03383 13.6322 1.7978 13.2161 1.54591C12.9991 1.43824 12.813 1.33307 12.3919 1.33198C12.0242 1.31125 11.5109 1.64133 11.3757 1.87343C11.024 2.40679 11.0396 2.70831 10.991 3.04521C10.9403 3.66186 10.99 4.18604 11.0542 4.72613C11.188 5.7703 11.4153 6.7678 11.6783 7.75321C12.2633 9.91385 13.038 12.0247 13.9911 14.0501C12.0269 14.3771 10.0656 14.7262 8.11631 15.1337C6.95831 15.3776 5.80127 15.6359 4.66374 15.964C4.23469 16.0878 3.91536 16.1706 3.50265 16.341C3.08993 16.5115 2.73125 16.5617 2.14205 17.1368C2.1106 17.1706 1.94007 17.3922 1.90214 17.6366ZM18.8964 13.5142C21.4204 11.8756 25.5744 11.7854 27.9057 12.6364C28.7223 12.9345 28.9758 13.7623 28.2292 14.2077C28.2292 14.2077 26.9562 14.8567 26.285 15.0958C24.1422 15.8496 21.8913 16.2834 19.6528 16.6444C19.4108 15.598 19.1642 14.5539 18.8964 13.5142ZM16.1512 18.801C16.3943 18.7747 16.6374 18.7474 16.8804 18.7191C16.9674 18.8158 17.0612 18.9646 17.204 18.9739C17.2631 18.9777 17.321 18.9588 17.3654 18.9209C17.4098 18.883 17.4375 18.8288 17.4429 18.7698C17.4467 18.7299 17.4398 18.6901 17.4242 18.6539C17.6894 18.6212 17.9545 18.5872 18.2196 18.5518C18.3338 19.0487 18.4465 19.543 18.5589 20.0331C19.1399 22.838 19.6794 25.7231 19.8246 28.5162C19.8394 28.8445 19.8423 29.2354 19.8234 29.5823C19.002 28.4161 18.4056 27.0887 17.8078 25.7997C16.8621 23.6229 16.0994 21.0899 16.1512 18.801ZM16.4117 16.9064C16.605 16.1956 16.9122 15.5325 17.3582 14.9404C17.5242 15.5976 17.6836 16.2563 17.8388 16.9133C17.3932 16.9738 16.947 17.0305 16.5002 17.0836C16.4704 17.0248 16.4409 16.9657 16.4117 16.9064ZM12.8116 4.11555C12.7722 3.50765 13.1617 3.97822 13.1617 3.97822C14.789 6.55646 15.9148 9.67189 16.8206 12.9119C16.552 13.1692 16.309 13.4355 16.0897 13.7096C15.7778 13.759 15.472 13.8079 15.1723 13.8564C15.0738 13.5765 14.9772 13.2965 14.8816 13.0175C14.2631 11.1526 13.7368 9.2588 13.3218 7.35411C13.0926 6.2874 12.851 4.72344 12.8116 4.11555ZM5.12279 17.6256C4.38829 17.5711 5.46428 17.3775 6.1776 17.1941C6.92813 17.0012 7.68498 16.8317 8.44199 16.6683C10.518 16.2211 12.6087 15.8427 14.7019 15.4854C14.763 15.6014 14.825 15.7169 14.888 15.8319C14.7103 16.31 14.581 16.8004 14.4933 17.2987C13.912 17.3546 13.3303 17.4053 12.7485 17.4513C10.2224 17.6254 6.35915 17.7174 5.12279 17.6256Z" fill="#DF4D20"/>
</svg>
