<svg width="1004" height="225" viewBox="0 0 1004 225" fill="none" xmlns="http://www.w3.org/2000/svg">
<path d="M876.643 73.3528C876.409 74.384 876.812 75.7325 877.255 76.3326C878.015 77.4421 878.844 77.8732 879.608 78.2462C880.711 78.7397 881.545 78.9467 882.674 79.1929C896.31 81.2505 909.192 80.2197 922.27 79.4304C924.315 79.278 926.358 79.1123 928.401 78.9316C928.329 89.9044 932.089 101.211 935.929 110.314C938.497 116.093 941.32 121.831 944.83 127.101C946.261 129.17 947.948 131.41 950.327 132.433C950.913 132.701 952.375 133.143 953.829 132.743C956.775 131.867 957.471 129.521 957.802 128.77C959.116 124.554 958.776 121.36 958.742 118.306C958.094 105.696 955.816 93.6881 953.368 81.7508C952.92 79.8533 952.48 77.9561 952.043 76.06C955.079 75.5782 958.114 75.0487 961.149 74.464C967.57 73.1999 974.005 71.7179 980.419 69.4928C985.379 67.7324 990.981 65.5285 994.485 61.3291C995.979 59.5487 997.167 56.9191 996.69 54.0113C995.236 48.7682 991.989 48.0287 989.661 46.6981C987.144 45.5572 984.708 44.8634 982.21 44.3159C977.261 43.259 972.258 42.914 967.27 43.1274C959.843 43.4873 952.114 45.0815 945.338 48.8915C941.958 37.1195 937.63 25.5165 930.955 14.2511C929.949 12.5529 928.819 10.9203 927.475 9.47436C926.531 8.45896 925.43 7.47727 923.699 6.42965C922.797 5.98183 922.023 5.54441 920.271 5.53986C918.742 5.45365 916.607 6.82649 916.045 7.79183C914.582 10.0102 914.647 11.2642 914.445 12.6654C914.234 15.2301 914.441 17.4103 914.708 19.6566C915.264 23.9994 916.209 28.1482 917.303 32.2466C919.737 41.233 922.959 50.0125 926.923 58.4363C918.753 59.7965 910.596 61.2481 902.489 62.9431C897.672 63.9576 892.86 65.0316 888.129 66.3962C886.344 66.9112 885.016 67.2556 883.3 67.9645C881.583 68.6734 880.091 68.8823 877.641 71.2743C877.51 71.4148 876.801 72.3366 876.643 73.3528ZM947.324 56.2074C957.822 49.392 975.099 49.0171 984.795 52.5566C988.192 53.7964 989.246 57.2393 986.141 59.0918C986.141 59.0918 980.846 61.7908 978.055 62.7855C969.143 65.9208 959.781 67.7247 950.47 69.2262C949.464 64.8741 948.438 60.5317 947.324 56.2074ZM935.907 78.1956C936.918 78.0865 937.929 77.973 938.94 77.8552C939.302 78.2574 939.691 78.8764 940.286 78.9149C940.531 78.9308 940.772 78.8521 940.957 78.6944C941.141 78.5367 941.257 78.3114 941.279 78.0663C941.295 77.9001 941.266 77.7345 941.201 77.5839C942.304 77.4479 943.407 77.3065 944.51 77.1593C944.984 79.226 945.453 81.2818 945.921 83.3204C948.337 94.9863 950.581 106.986 951.185 118.603C951.247 119.968 951.258 121.594 951.18 123.037C947.764 118.186 945.283 112.665 942.797 107.304C938.864 98.2507 935.691 87.7155 935.907 78.1956ZM936.99 70.316C937.794 67.3598 939.072 64.6017 940.927 62.1392C941.617 64.8724 942.28 67.6122 942.926 70.3447C941.072 70.5963 939.217 70.8323 937.358 71.053C937.234 70.8083 937.112 70.5626 936.99 70.316ZM922.017 17.1171C921.853 14.5888 923.473 16.546 923.473 16.546C930.241 27.2692 934.924 40.2266 938.691 53.7024C937.574 54.7726 936.563 55.88 935.651 57.0199C934.354 57.2254 933.082 57.4289 931.836 57.6304C931.426 56.4663 931.024 55.3019 930.626 54.1416C928.054 46.385 925.865 38.5086 924.139 30.5867C923.186 26.1501 922.181 19.6454 922.017 17.1171ZM890.038 73.3071C886.983 73.0803 891.458 72.2752 894.425 71.5126C897.547 70.7101 900.695 70.0052 903.843 69.3258C912.478 67.4659 921.173 65.8921 929.879 64.4059C930.133 64.8881 930.391 65.3686 930.653 65.8468C929.914 67.8354 929.376 69.8752 929.011 71.9478C926.594 72.1802 924.174 72.391 921.755 72.5822C911.248 73.3065 895.18 73.6889 890.038 73.3071Z" fill="#DF4D20"/>
<path d="M111.35 123.094C115.056 120.046 120.417 118.185 124.822 118.995C128.451 119.663 131.105 121.146 132.928 123.325C134.641 125.374 135.27 127.665 135.628 128.945C136.272 131.249 134.927 133.64 132.623 134.284C130.319 134.929 127.929 133.583 127.284 131.279C126.918 129.969 126.676 129.354 126.282 128.884C125.998 128.544 125.306 127.893 123.255 127.516C121.98 127.281 119.131 127.911 116.852 129.785C114.792 131.479 114.124 133.335 114.893 135.414C115.764 137.769 118.136 139.143 122.545 141.092C124.447 141.932 126.868 142.96 128.859 144.311C130.948 145.727 133.081 147.832 133.856 151.072C134.521 153.85 134.138 156.765 132.474 159.333C130.862 161.819 128.288 163.625 125.168 164.833C119.017 167.214 109.695 167.695 96.9248 165.609C94.564 165.224 92.9631 162.997 93.3486 160.636C93.7344 158.275 95.9606 156.674 98.3213 157.06C110.506 159.049 118.011 158.313 122.04 156.754C124.01 155.991 124.864 155.146 125.204 154.621C125.491 154.178 125.583 153.721 125.432 153.089C125.346 152.73 125.095 152.225 123.997 151.48C122.801 150.67 121.228 149.982 119.043 149.017C117.111 148.163 114.546 147.059 112.19 145.334C111.311 147.025 110.224 148.477 108.948 149.655C105.59 152.756 101.04 153.766 96.9297 151.951C94.1809 150.737 92.0845 148.47 90.7637 145.562C87.161 149.421 82.6118 151.871 78 151.063C72.765 150.147 69.9048 145.567 69.2695 140.41C69.0913 138.963 69.0668 137.405 69.2021 135.745C63.6113 140.537 57.5004 146.362 51.3896 152.627C51.3059 152.842 51.2247 153.059 51.1396 153.275C43.5346 172.613 30.3131 197.474 20.9131 212.329C17.5062 217.713 14.3476 221.456 11.3877 223.277C9.88319 224.203 7.80224 225.013 5.5166 224.471C3.06858 223.89 1.65664 222.079 0.949219 220.468C-0.330336 217.553 -0.155646 213.597 0.529297 209.92C1.26031 205.996 2.74949 201.481 4.9834 196.929C9.43561 187.856 21.1815 172.759 34.2314 158.272C37.3844 154.772 40.6466 151.271 43.9395 147.863C45.3733 144.071 46.5333 140.6 47.3447 137.576C48.3351 133.885 48.7215 131.176 48.6387 129.462C48.6329 129.342 48.6256 129.233 48.6172 129.135C47.9184 129.343 46.9108 129.775 45.5479 130.568C37.8372 135.058 28.8949 142.088 21.7695 148.116C18.2328 151.108 15.1911 153.813 13.0352 155.768C11.9577 156.745 11.1028 157.534 10.5195 158.076C10.2281 158.347 10.004 158.556 9.85449 158.696C9.78005 158.766 9.72344 158.819 9.68652 158.854C9.66815 158.871 9.65422 158.884 9.64551 158.893C9.64124 158.897 9.6386 158.901 9.63672 158.902L9.63477 158.903C7.8995 160.55 5.1575 160.478 3.51074 158.743C1.86399 157.008 1.93563 154.266 3.6709 152.619L6.65234 155.762C3.80415 152.76 3.67721 152.626 3.67188 152.619L3.68945 152.602C3.70067 152.591 3.71735 152.575 3.73828 152.556C3.78034 152.516 3.84192 152.458 3.92188 152.383C4.08215 152.232 4.31676 152.011 4.62012 151.729C5.22697 151.165 6.10945 150.353 7.21582 149.35C9.42763 147.344 12.5452 144.573 16.1738 141.503C23.3801 135.407 32.7953 127.968 41.1885 123.081C43.0179 122.016 44.7817 121.2 46.458 120.741C48.114 120.288 49.9916 120.099 51.834 120.676C56.1164 122.017 57.1521 126.17 57.291 129.044C57.3808 130.903 57.171 133.008 56.7578 135.255C62.6732 129.762 68.3574 124.979 73.3379 121.468C73.3813 121.374 73.4247 121.28 73.4688 121.186L77.3926 123.021L81.3154 124.855C78.1919 131.533 77.504 136.395 77.8682 139.352C78.2312 142.298 79.371 142.508 79.4941 142.529C80.0307 142.623 81.9938 142.425 84.7559 139.295C86.5108 137.306 88.3446 134.361 89.9658 130.31C90.5054 127.923 91.3145 125.388 92.416 122.718L100.617 125.44C99.9363 128.108 99.1518 130.568 98.2852 132.821C97.6999 135.689 97.6908 137.985 97.9844 139.719C98.4829 142.663 99.7581 143.729 100.429 144.025C101.007 144.281 101.934 144.34 103.07 143.291C104.234 142.217 105.636 139.853 106.029 135.536C105.272 130.226 108.01 125.839 111.35 123.094ZM32.7041 173.188C23.2842 184.326 15.8088 194.533 12.7607 200.744C10.8356 204.667 9.61801 208.436 9.0459 211.507C8.85094 212.553 8.73692 213.487 8.68945 214.292C9.92507 212.987 11.5676 210.895 13.5918 207.696C19.2525 198.75 26.3594 186.026 32.7041 173.188ZM153.605 109.228C154.775 107.141 157.415 106.398 159.502 107.567C161.588 108.737 162.332 111.377 161.162 113.464C160.073 115.406 158.882 117.63 157.655 120.026C160.604 118.759 163.553 117.491 166.502 116.224C166.849 116.075 167.18 115.933 167.527 115.783C168.583 115.33 169.776 115.314 170.843 115.739C171.91 116.165 172.764 116.997 173.218 118.052C173.671 119.107 173.687 120.3 173.262 121.367C172.836 122.434 172.004 123.289 170.949 123.743C170.602 123.892 170.27 124.034 169.923 124.183C163.964 126.744 158.004 129.307 152.045 131.868C149.079 138.461 146.402 143.77 145.237 148.277C144.633 150.617 144.624 152.135 144.892 153.103C145.098 153.848 145.55 154.609 146.968 155.353C147.152 155.449 147.768 155.655 149.129 155.558C150.444 155.463 152.108 155.109 154.08 154.485C158.023 153.238 162.619 151.096 167.096 148.708C171.54 146.338 175.718 143.806 178.795 141.858C180.33 140.887 181.584 140.066 182.45 139.49C182.883 139.202 183.219 138.976 183.444 138.823C183.557 138.747 183.642 138.688 183.697 138.65C183.725 138.632 183.745 138.617 183.758 138.608L183.775 138.597L183.962 138.475C185.912 137.271 188.484 137.796 189.8 139.703C191.158 141.672 190.664 144.369 188.695 145.728L186.234 142.162C188.633 145.639 188.693 145.726 188.694 145.729L188.686 145.734C188.681 145.738 188.674 145.743 188.665 145.749C188.647 145.761 188.622 145.779 188.59 145.801C188.524 145.845 188.429 145.91 188.306 145.993C188.06 146.16 187.702 146.401 187.246 146.704C186.334 147.311 185.026 148.168 183.429 149.179C180.24 151.196 175.868 153.848 171.173 156.353C166.51 158.84 161.376 161.263 156.694 162.744C154.355 163.485 151.982 164.038 149.75 164.198C147.564 164.355 145.122 164.166 142.947 163.026C139.648 161.298 137.456 158.718 136.542 155.413C135.689 152.33 136.081 149.085 136.85 146.11C138.248 140.698 141.513 134.157 144.273 128.025L145.363 125.584C148.105 119.497 151.112 113.675 153.605 109.228Z" fill="#DF4D20"/>
<path d="M245.784 135.74C245.784 135.74 247.84 121.148 239.538 119.067C231.237 116.985 218.181 124.218 216.099 145.036C214.018 165.854 230.196 164.904 237.457 161.762C244.717 158.62 270.726 134.929 270.726 134.929" stroke="#DF4D20" stroke-width="8.6632" stroke-linecap="round"/>
<path d="M269.273 138.344C270.869 134.433 279.375 124.396 283.046 123.496C286.717 122.596 288.551 126.196 288.551 126.196C294.058 135.644 294.603 153.191 280.286 153.191C267.894 153.191 266.518 145.093 269.273 138.344Z" stroke="#DF4D20" stroke-width="8.6632"/>
<path d="M706.235 135.01C707.998 130.657 717.39 119.484 721.444 118.482C725.498 117.48 727.524 121.487 727.524 121.487C733.605 132.005 734.207 151.538 718.397 151.538C704.713 151.538 703.193 142.523 706.235 135.01Z" stroke="#DF4D20" stroke-width="8.6632"/>
<path d="M473.837 136.83C475.424 132.915 483.903 122.856 487.571 121.946C491.24 121.037 493.084 124.631 493.084 124.631C498.616 134.066 499.206 151.611 484.889 151.649C472.497 151.681 471.1 143.586 473.837 136.83Z" stroke="#DF4D20" stroke-width="8.6632"/>
<path d="M283.508 118.729C289.366 127.25 304.65 125.226 319.088 119.932" stroke="#DF4D20" stroke-width="8.6632" stroke-linecap="round"/>
<path d="M324.03 121.206C324.606 118.884 323.191 116.535 320.869 115.959C318.547 115.383 316.198 116.798 315.622 119.12L319.826 120.163L324.03 121.206ZM310.762 156.706L306.557 155.663L314.301 159.203L310.762 156.706ZM357.068 119.978L353.132 121.787L357.068 119.978ZM353.347 157.216L349.096 156.386L357.016 159.519L353.347 157.216ZM451.422 149.414L452.65 145.26L451.422 149.414ZM489.71 131.072C491.211 129.21 490.918 126.483 489.056 124.982C487.193 123.48 484.466 123.773 482.965 125.636L486.337 128.354L489.71 131.072ZM319.826 120.163L315.622 119.12L306.557 155.663L310.762 156.706L314.966 157.749L324.03 121.206L319.826 120.163ZM310.762 156.706C314.301 159.203 314.301 159.203 314.301 159.203C314.301 159.203 314.301 159.203 314.302 159.202C314.302 159.202 314.303 159.201 314.304 159.199C314.305 159.197 314.308 159.193 314.312 159.187C314.32 159.176 314.332 159.16 314.347 159.137C314.378 159.093 314.425 159.027 314.486 158.941C314.609 158.767 314.791 158.511 315.026 158.18C315.495 157.518 316.178 156.56 317.025 155.375C318.72 153.004 321.076 149.731 323.717 146.118C329.024 138.858 335.399 130.343 339.892 124.996L336.576 122.21L333.26 119.423C328.556 125.02 322.024 133.753 316.723 141.005C314.06 144.648 311.687 147.947 309.979 150.335C309.125 151.529 308.437 152.496 307.962 153.165C307.724 153.5 307.54 153.76 307.415 153.937C307.352 154.025 307.304 154.093 307.272 154.138C307.256 154.161 307.244 154.179 307.235 154.19C307.231 154.196 307.228 154.201 307.226 154.204C307.225 154.205 307.224 154.206 307.223 154.207C307.223 154.208 307.223 154.208 307.223 154.208C307.222 154.208 307.222 154.209 310.762 156.706ZM336.576 122.21L339.892 124.996C344.194 119.878 347.411 118.553 349.133 118.488C350.396 118.441 351.88 119.064 353.132 121.787L357.068 119.978L361.003 118.168C358.786 113.345 354.623 109.612 348.807 109.831C343.45 110.033 338.155 113.598 333.26 119.423L336.576 122.21ZM357.068 119.978L353.132 121.787C353.073 121.658 353.232 122.03 353.297 123.349C353.355 124.514 353.326 126.025 353.215 127.817C352.994 131.391 352.469 135.743 351.855 140.014C351.243 144.268 350.552 148.366 350.014 151.404C349.745 152.922 349.514 154.172 349.351 155.04C349.27 155.475 349.206 155.813 349.162 156.042C349.14 156.157 349.123 156.244 349.112 156.302C349.106 156.33 349.102 156.352 349.099 156.366C349.098 156.373 349.097 156.378 349.096 156.382C349.096 156.383 349.096 156.384 349.096 156.385C349.096 156.385 349.096 156.386 349.096 156.386C349.096 156.386 349.096 156.386 353.347 157.216C357.598 158.046 357.598 158.046 357.598 158.046C357.598 158.045 357.598 158.045 357.599 158.044C357.599 158.043 357.599 158.041 357.6 158.039C357.6 158.034 357.602 158.028 357.603 158.02C357.606 158.003 357.611 157.979 357.617 157.948C357.629 157.885 357.647 157.793 357.67 157.673C357.716 157.433 357.783 157.083 357.866 156.637C358.034 155.744 358.269 154.466 358.544 152.916C359.093 149.821 359.8 145.625 360.43 141.248C361.057 136.888 361.619 132.269 361.861 128.352C361.982 126.399 362.03 124.534 361.95 122.921C361.878 121.462 361.686 119.653 361.003 118.168L357.068 119.978ZM353.347 157.216C357.016 159.519 357.015 159.519 357.015 159.519C357.016 159.519 357.016 159.519 357.016 159.518C357.017 159.517 357.018 159.515 357.019 159.513C357.023 159.508 357.028 159.5 357.035 159.488C357.049 159.466 357.071 159.431 357.1 159.385C357.159 159.292 357.248 159.153 357.364 158.97C357.598 158.605 357.943 158.069 358.385 157.394C359.269 156.042 360.537 154.134 362.068 151.92C365.143 147.475 369.224 141.876 373.346 137.086C375.409 134.689 377.427 132.559 379.29 130.894C381.211 129.178 382.712 128.189 383.735 127.784C384.709 127.397 384.314 127.845 383.757 127.38C383.583 127.234 384.233 127.708 384.547 130.549L388.853 130.074L393.158 129.598C392.781 126.183 391.803 122.812 389.31 120.73C386.433 118.328 383.026 118.745 380.542 119.731C378.107 120.696 375.703 122.481 373.517 124.434C371.273 126.44 368.983 128.875 366.78 131.435C362.371 136.558 358.094 142.438 354.943 146.992C353.362 149.278 352.051 151.25 351.134 152.653C350.675 153.355 350.314 153.915 350.066 154.302C349.942 154.496 349.847 154.646 349.781 154.749C349.749 154.801 349.724 154.841 349.706 154.868C349.698 154.882 349.691 154.893 349.686 154.9C349.684 154.904 349.682 154.907 349.681 154.909C349.68 154.91 349.679 154.911 349.679 154.912C349.678 154.913 349.678 154.913 353.347 157.216ZM388.853 130.074L384.547 130.549C385.228 136.706 385.434 141.062 385.34 144.133C385.244 147.28 384.838 148.72 384.572 149.294C384.438 149.582 384.547 149.311 384.854 149.216C384.863 149.213 384.837 149.222 384.759 149.234C384.678 149.247 384.566 149.261 384.395 149.275C384.258 149.286 383.36 149.337 382.877 149.39L383.353 153.696L383.829 158.001C384.253 157.954 384.294 157.974 385.094 157.91C385.672 157.863 386.508 157.772 387.409 157.494C389.519 156.842 391.295 155.383 392.428 152.944C393.429 150.79 393.891 147.964 394 144.398C394.111 140.757 393.86 135.954 393.158 129.598L388.853 130.074ZM383.353 153.696L382.877 149.39C383.487 149.323 384.355 149.389 385.227 149.892C386.088 150.388 386.562 151.084 386.799 151.592C387.187 152.422 387.083 153.033 387.099 152.822C387.115 152.598 387.256 151.856 387.721 150.503C388.603 147.934 390.267 144.246 392.464 140.296C394.654 136.357 397.287 132.315 400.046 128.993C402.885 125.574 405.521 123.331 407.633 122.427L405.928 118.445L404.223 114.463C400.199 116.186 396.492 119.712 393.381 123.458C390.19 127.3 387.265 131.818 384.893 136.086C382.526 140.342 380.621 144.506 379.527 147.689C379.005 149.211 378.557 150.819 378.458 152.201C378.415 152.794 378.373 154.021 378.949 155.256C379.28 155.965 379.881 156.81 380.9 157.397C381.932 157.992 382.993 158.094 383.829 158.001L383.353 153.696ZM405.928 118.445L407.633 122.427C408.535 122.041 408.278 122.423 407.602 122.083C407.017 121.789 407.117 121.442 407.371 122.222C407.91 123.884 408 127.005 407.728 131.207C407.6 133.196 407.407 135.251 407.212 137.283C407.021 139.284 406.825 141.295 406.708 143.076C406.594 144.81 406.535 146.588 406.688 148.065C406.763 148.791 406.913 149.711 407.281 150.603C407.633 151.458 408.458 152.925 410.252 153.637L411.85 149.611L413.448 145.585C414.762 146.107 415.217 147.123 415.29 147.302C415.379 147.518 415.343 147.537 415.305 147.173C415.232 146.471 415.243 145.313 415.353 143.644C415.459 142.021 415.64 140.16 415.836 138.108C416.029 136.086 416.235 133.906 416.373 131.766C416.635 127.711 416.731 122.998 415.61 119.546C415.033 117.77 413.885 115.546 411.495 114.344C409.011 113.095 406.388 113.536 404.223 114.463L405.928 118.445ZM411.85 149.611L410.252 153.637C412.136 154.385 413.804 153.79 414.637 153.377C415.515 152.941 416.247 152.333 416.79 151.826C417.901 150.788 419.063 149.364 420.168 147.913C421.304 146.422 422.537 144.69 423.781 142.938C425.041 141.164 426.326 139.35 427.623 137.605C430.309 133.989 432.698 131.157 434.563 129.763C435.531 129.038 435.745 129.176 435.37 129.177C434.539 129.179 434.191 128.598 434.347 128.853L438.039 126.588L441.731 124.323C440.395 122.145 438.229 120.506 435.345 120.514C432.915 120.521 430.841 121.728 429.374 122.825C426.368 125.073 423.303 128.891 420.668 132.439C419.305 134.274 417.962 136.17 416.718 137.922C415.458 139.696 414.31 141.308 413.277 142.664C412.213 144.06 411.42 144.988 410.876 145.495C410.592 145.76 410.573 145.723 410.786 145.617C410.954 145.534 412.044 145.028 413.448 145.585L411.85 149.611ZM438.039 126.588L434.347 128.853C437.089 133.322 438.457 137.85 440.377 142.531C442.061 146.633 444.557 151.902 450.195 153.568L451.422 149.414L452.65 145.26C451.394 144.889 450.185 143.611 448.392 139.243C446.837 135.453 444.961 129.586 441.731 124.323L438.039 126.588ZM451.422 149.414L450.195 153.568C455.218 155.053 460.347 153.864 464.764 151.882C469.224 149.88 473.483 146.839 477.096 143.809C480.736 140.757 483.875 137.586 486.095 135.192C487.209 133.991 488.102 132.975 488.72 132.254C489.03 131.893 489.271 131.605 489.438 131.404C489.522 131.303 489.586 131.224 489.632 131.168C489.655 131.14 489.673 131.118 489.686 131.102C489.692 131.094 489.698 131.088 489.702 131.083C489.704 131.08 489.705 131.078 489.707 131.076C489.707 131.076 489.708 131.075 489.709 131.074C489.709 131.073 489.71 131.072 486.337 128.354C482.965 125.636 482.966 125.635 482.966 125.635C482.966 125.635 482.966 125.634 482.966 125.634C482.967 125.634 482.966 125.634 482.966 125.635C482.965 125.636 482.963 125.639 482.959 125.643C482.953 125.651 482.941 125.665 482.925 125.685C482.892 125.725 482.841 125.788 482.771 125.872C482.632 126.04 482.42 126.292 482.143 126.616C481.588 127.263 480.771 128.194 479.743 129.301C477.681 131.525 474.808 134.422 471.53 137.171C468.226 139.941 464.661 142.432 461.217 143.978C457.729 145.543 454.871 145.917 452.65 145.26L451.422 149.414Z" fill="#DF4D20"/>
<path d="M513.535 113.271C513.535 113.271 515.22 114.474 515.22 122.415C515.22 130.356 507.76 155.304 507.76 155.304C521.244 132.126 551.89 95.8062 551.89 136.511C551.89 153.425 571.504 154.677 579.472 138.39" stroke="#DF4D20" stroke-width="8.6632" stroke-linecap="round"/>
<path d="M664.246 136.182C698.142 133.761 690.586 110.273 673.932 120.448C652.141 133.761 662.934 168.351 698.276 146.348C751.631 113.131 721.943 118.321 721.943 118.321" stroke="#DF4D20" stroke-width="8.6632" stroke-linecap="round"/>
<path d="M830.548 144.613C861.053 129.64 845.23 110.708 833.616 126.392C818.419 146.915 836.771 171.464 866.84 142.671C876.517 133.406 885.486 125.705 885.486 125.705" stroke="#DF4D20" stroke-width="8.6632" stroke-linecap="round"/>
<path d="M622.104 113.339C622.104 110.947 620.165 109.007 617.773 109.007C615.38 109.007 613.441 110.947 613.441 113.339H617.773H622.104ZM598.002 215.274L593.745 214.471C593.302 216.819 594.845 219.083 597.193 219.529C599.541 219.976 601.807 218.436 602.256 216.089L598.002 215.274ZM642.765 118.337L640.583 122.079L642.765 118.337ZM665.806 140.494C668.192 140.311 669.977 138.229 669.793 135.843C669.61 133.458 667.527 131.673 665.142 131.857L665.474 136.176L665.806 140.494ZM617.773 113.339H613.441C613.441 112.964 613.501 112.678 613.45 113.009C613.428 113.15 613.392 113.367 613.339 113.67C613.234 114.271 613.076 115.133 612.87 116.236C612.459 118.438 611.864 121.549 611.133 125.337C609.671 132.91 607.67 143.158 605.511 154.185C601.195 176.23 596.249 201.396 593.748 214.459L598.002 215.274L602.256 216.089C604.753 203.049 609.693 177.913 614.013 155.85C616.171 144.823 618.175 134.565 619.639 126.979C620.371 123.187 620.97 120.055 621.386 117.826C621.594 116.713 621.758 115.813 621.872 115.163C621.929 114.841 621.976 114.561 622.01 114.34C622.015 114.31 622.104 113.797 622.104 113.339H617.773ZM598.002 215.274L602.258 216.077C605.011 201.487 611.239 174.64 619.168 152.958C623.158 142.05 627.444 132.83 631.732 127.108C633.89 124.227 635.765 122.622 637.246 121.938C638.458 121.378 639.415 121.398 640.583 122.079L642.765 118.337L644.948 114.596C641.205 112.412 637.253 112.393 633.614 114.073C630.243 115.629 627.324 118.542 624.799 121.913C619.719 128.693 615.084 138.904 611.032 149.983C602.879 172.274 596.546 199.625 593.745 214.471L598.002 215.274ZM642.765 118.337L640.583 122.079C643.333 123.683 644.225 125.618 644.332 127.73C644.455 130.158 643.526 133.238 641.616 136.559C639.743 139.818 637.148 142.917 634.546 145.268C631.786 147.762 629.604 148.889 628.638 149.07L629.436 153.327L630.234 157.585C633.631 156.948 637.296 154.459 640.354 151.696C643.568 148.792 646.76 144.994 649.127 140.877C651.458 136.822 653.225 132.044 652.984 127.292C652.727 122.224 650.195 117.657 644.948 114.596L642.765 118.337ZM629.436 153.327L628.638 149.07C627.883 149.211 628.381 148.922 629.257 149.438C629.807 149.762 630.331 150.318 630.61 151.068C630.867 151.757 630.808 152.314 630.76 152.553C630.685 152.935 630.602 152.79 631.165 152.128C631.662 151.544 632.486 150.767 633.719 149.878C638.685 146.298 649.054 141.783 665.806 140.494L665.474 136.176L665.142 131.857C647.238 133.234 635.224 138.113 628.653 142.851C627.001 144.041 625.619 145.277 624.566 146.515C623.578 147.677 622.6 149.166 622.262 150.871C622.084 151.772 622.052 152.912 622.492 154.092C622.954 155.332 623.816 156.287 624.857 156.901C626.715 157.996 628.807 157.852 630.234 157.585L629.436 153.327Z" fill="#DF4D20"/>
<path d="M750.017 113.339H754.348C754.348 111.474 753.155 109.819 751.386 109.229C749.617 108.64 747.669 109.249 746.551 110.741L750.017 113.339ZM727.756 216.52L723.428 216.348C723.338 218.613 725.009 220.564 727.261 220.823C729.513 221.082 731.584 219.561 732.01 217.334L727.756 216.52ZM775.009 118.337L772.466 121.844L775.009 118.337ZM748.46 138.519C746.659 136.945 743.923 137.129 742.348 138.931C740.774 140.732 740.958 143.468 742.76 145.043L745.61 141.781L748.46 138.519ZM710.129 129.401C707.763 129.046 705.558 130.676 705.203 133.042C704.848 135.408 706.478 137.613 708.844 137.968L709.486 133.684L710.129 129.401ZM750.017 113.339H745.685C745.685 113.113 745.704 112.945 745.707 112.92C745.713 112.865 745.718 112.83 745.718 112.827C745.72 112.819 745.716 112.843 745.703 112.914C745.679 113.052 745.637 113.269 745.575 113.576C745.453 114.183 745.27 115.057 745.03 116.177C744.551 118.413 743.859 121.572 743.011 125.42C741.314 133.12 739.004 143.51 736.531 154.706C731.596 177.048 726.015 202.579 723.501 215.705L727.756 216.52L732.01 217.334C734.495 204.356 740.045 178.963 744.99 156.575C747.458 145.405 749.776 134.977 751.471 127.285C752.32 123.436 753.016 120.255 753.501 117.992C753.743 116.862 753.935 115.946 754.068 115.285C754.134 114.957 754.19 114.67 754.231 114.442C754.251 114.33 754.272 114.205 754.29 114.084C754.293 114.063 754.348 113.722 754.348 113.339H750.017ZM727.756 216.52L732.084 216.692C732.691 201.416 737.342 172.155 745.303 149.389C749.317 137.911 753.968 128.699 758.933 123.621C761.369 121.129 763.58 119.943 765.533 119.648C767.377 119.37 769.633 119.789 772.466 121.844L775.009 118.337L777.552 114.831C773.296 111.744 768.795 110.395 764.241 111.082C759.796 111.752 755.965 114.264 752.739 117.564C746.38 124.069 741.224 134.809 737.125 146.529C728.862 170.16 724.066 200.275 723.428 216.348L727.756 216.52ZM775.009 118.337L772.466 121.844C774.833 123.56 775.976 126.238 775.884 129.502C775.79 132.84 774.372 136.521 771.898 139.424C769.454 142.292 766.174 144.187 762.448 144.433C758.761 144.677 753.985 143.348 748.46 138.519L745.61 141.781L742.76 145.043C749.588 151.01 756.537 153.507 763.02 153.078C769.465 152.651 774.801 149.374 778.493 145.042C782.155 140.744 784.391 135.195 784.544 129.745C784.699 124.22 782.681 118.551 777.552 114.831L775.009 118.337ZM750.017 113.339C746.551 110.741 746.551 110.74 746.551 110.74C746.551 110.74 746.551 110.74 746.551 110.74C746.551 110.74 746.551 110.74 746.551 110.741C746.55 110.741 746.549 110.743 746.547 110.746C746.542 110.752 746.535 110.762 746.525 110.775C746.504 110.802 746.473 110.844 746.43 110.9C746.345 111.012 746.216 111.18 746.048 111.397C745.711 111.832 745.218 112.462 744.6 113.229C743.361 114.766 741.634 116.837 739.678 118.988C737.713 121.148 735.568 123.331 733.489 125.12C731.333 126.975 729.562 128.13 728.334 128.582L729.832 132.646L731.329 136.711C734.047 135.71 736.77 133.725 739.139 131.687C741.584 129.583 743.992 127.12 746.087 124.817C748.191 122.504 750.032 120.294 751.345 118.665C752.002 117.849 752.531 117.175 752.898 116.701C753.081 116.464 753.225 116.277 753.323 116.147C753.373 116.083 753.411 116.032 753.438 115.997C753.451 115.979 753.461 115.965 753.469 115.955C753.473 115.95 753.476 115.946 753.478 115.943C753.479 115.942 753.48 115.94 753.481 115.939C753.481 115.939 753.482 115.938 753.482 115.938C753.482 115.938 753.482 115.937 750.017 113.339ZM729.832 132.646L728.334 128.582C725.189 129.741 720.783 130.026 716.81 129.925C714.892 129.877 713.199 129.743 711.989 129.621C711.386 129.56 710.907 129.503 710.585 129.462C710.424 129.442 710.303 129.425 710.226 129.414C710.187 129.409 710.159 129.405 710.143 129.403C710.135 129.402 710.129 129.401 710.127 129.4C710.126 129.4 710.125 129.4 710.126 129.4C710.126 129.4 710.126 129.4 710.127 129.4C710.127 129.4 710.128 129.4 710.128 129.4C710.128 129.401 710.129 129.401 709.486 133.684C708.844 137.968 708.844 137.968 708.845 137.968C708.846 137.968 708.846 137.968 708.847 137.969C708.848 137.969 708.85 137.969 708.851 137.969C708.855 137.97 708.859 137.97 708.864 137.971C708.873 137.972 708.886 137.974 708.902 137.977C708.933 137.981 708.976 137.987 709.031 137.995C709.139 138.01 709.294 138.031 709.489 138.056C709.879 138.106 710.435 138.172 711.123 138.241C712.495 138.379 714.409 138.53 716.591 138.585C720.819 138.693 726.586 138.459 731.329 136.711L729.832 132.646Z" fill="#DF4D20"/>
<path d="M820.552 65.6145L823.927 62.8988C823.031 61.786 821.644 61.1862 820.22 61.2956C818.796 61.4051 817.517 62.2097 816.802 63.4464L820.552 65.6145ZM833.196 148.744C835.38 147.767 836.358 145.205 835.381 143.021C834.404 140.837 831.842 139.859 829.659 140.836L831.427 144.79L833.196 148.744ZM793.631 117.591C792.072 119.406 792.28 122.141 794.095 123.699C795.91 125.258 798.644 125.05 800.203 123.235L796.917 120.413L793.631 117.591ZM820.552 65.6145C816.802 63.4464 816.802 63.4471 816.801 63.448C816.801 63.4487 816.8 63.4498 816.799 63.4511C816.798 63.4536 816.796 63.457 816.793 63.4614C816.788 63.4701 816.781 63.4826 816.772 63.4987C816.753 63.531 816.726 63.5779 816.691 63.6391C816.621 63.7616 816.519 63.9412 816.386 64.1747C816.121 64.6416 815.737 65.3243 815.253 66.1966C814.286 67.941 812.92 70.4456 811.318 73.5019C808.117 79.607 803.953 87.9477 800.132 96.8449C796.325 105.708 792.786 115.286 790.918 123.83C789.984 128.101 789.433 132.264 789.532 136.034C789.631 139.767 790.375 143.477 792.375 146.514L795.993 144.132L799.61 141.75C798.836 140.574 798.268 138.671 798.193 135.806C798.118 132.979 798.533 129.559 799.381 125.68C801.077 117.922 804.372 108.924 808.092 100.264C811.797 91.638 815.853 83.5087 818.991 77.5247C820.557 74.5364 821.891 72.0916 822.83 70.3977C823.299 69.5509 823.67 68.8923 823.922 68.4477C824.048 68.2254 824.145 68.0567 824.209 67.9447C824.241 67.8888 824.265 67.847 824.28 67.8198C824.288 67.8063 824.294 67.7963 824.298 67.7901C824.299 67.787 824.301 67.7848 824.301 67.7836C824.302 67.7829 824.302 67.7827 824.302 67.7824C824.302 67.7824 824.302 67.7826 820.552 65.6145ZM795.993 144.132L792.375 146.514C795.659 151.502 799.764 154.467 804.287 155.807C808.713 157.117 813.158 156.76 817.046 155.815C820.936 154.87 824.508 153.277 827.326 151.852C828.742 151.136 830.008 150.442 831.025 149.885C832.114 149.289 832.777 148.931 833.196 148.744L831.427 144.79L829.659 140.836C828.846 141.199 827.824 141.761 826.865 142.286C825.834 142.85 824.688 143.478 823.418 144.121C820.863 145.412 817.965 146.676 815 147.397C812.032 148.118 809.235 148.237 806.747 147.5C804.356 146.792 801.873 145.187 799.61 141.75L795.993 144.132ZM820.552 65.6145L817.177 68.3302C819.236 70.8882 820.107 73.322 820.173 75.8799C820.243 78.5449 819.446 81.7274 817.484 85.7129C813.492 93.8221 805.397 103.889 793.631 117.591L796.917 120.413L800.203 123.235C811.8 109.73 820.689 98.8177 825.257 89.5392C827.575 84.8308 828.952 80.2175 828.834 75.655C828.712 70.9855 827.034 66.7605 823.927 62.8988L820.552 65.6145Z" fill="#DF4D20"/>
<path d="M66.0986 109.302C62.4604 112.487 58.3089 111.597 55.543 108.438C52.7771 105.278 52.4441 101.046 56.0823 97.8607C59.7206 94.6757 64.9121 94.655 67.6781 97.8146C70.444 100.974 69.7368 106.117 66.0986 109.302Z" fill="#DF4D20"/>
</svg>
