<svg width="997" height="220" viewBox="0 0 997 220" fill="none" xmlns="http://www.w3.org/2000/svg">
<path d="M876.643 67.8168C876.409 68.848 876.812 70.1965 877.255 70.7966C878.014 71.9061 878.844 72.3372 879.607 72.7102C880.71 73.2037 881.545 73.4107 882.674 73.6569C896.31 75.7145 909.192 74.6837 922.27 73.8944C924.315 73.742 926.358 73.5763 928.4 73.3956C928.329 84.3684 932.089 95.6746 935.929 104.778C938.497 110.557 941.319 116.295 944.83 121.565C946.261 123.634 947.948 125.875 950.326 126.897C950.913 127.165 952.374 127.607 953.829 127.207C956.775 126.331 957.47 123.985 957.801 123.234C959.115 119.018 958.776 115.824 958.742 112.77C958.094 100.16 955.815 88.1521 953.368 76.2148C952.919 74.3173 952.48 72.4201 952.043 70.524C955.079 70.0422 958.114 69.5127 961.148 68.928C967.569 67.6639 974.005 66.1819 980.419 63.9568C985.379 62.1964 990.981 59.9925 994.485 55.7931C995.979 54.0128 997.166 51.3832 996.689 48.4753C995.236 43.2322 991.988 42.4927 989.661 41.1622C987.144 40.0213 984.707 39.3274 982.21 38.7799C977.261 37.723 972.258 37.378 967.27 37.5914C959.843 37.9513 952.114 39.5456 945.338 43.3556C941.957 31.5836 937.63 19.9805 930.955 8.71514C929.949 7.01692 928.818 5.38432 927.474 3.93837C926.531 2.92297 925.43 1.94128 923.699 0.893661C922.796 0.445842 922.023 0.00842256 920.271 0.00386988C918.742 -0.0823398 916.607 1.29051 916.045 2.25584C914.582 4.47418 914.647 5.72823 914.445 7.12944C914.234 9.69416 914.441 11.8743 914.707 14.1206C915.264 18.4634 916.209 22.6122 917.303 26.7106C919.736 35.697 922.959 44.4765 926.923 52.9003C918.753 54.2605 910.596 55.7121 902.488 57.4071C897.672 58.4216 892.86 59.4956 888.129 60.8602C886.344 61.3752 885.016 61.7197 883.299 62.4285C881.583 63.1374 880.091 63.3463 877.641 65.7383C877.51 65.8788 876.801 66.8006 876.643 67.8168ZM947.324 50.6714C957.822 43.856 975.099 43.4811 984.795 47.0206C988.191 48.2604 989.246 51.7033 986.141 53.5558C986.141 53.5558 980.846 56.2549 978.054 57.2495C969.142 60.3848 959.78 62.1887 950.47 63.6902C949.464 59.3381 948.438 54.9958 947.324 50.6714ZM935.907 72.6596C936.918 72.5505 937.929 72.437 938.939 72.3192C939.301 72.7215 939.691 73.3404 940.285 73.3789C940.531 73.3948 940.772 73.3161 940.956 73.1584C941.141 73.0007 941.256 72.7754 941.279 72.5303C941.294 72.3641 941.266 72.1985 941.201 72.0479C942.304 71.9119 943.407 71.7705 944.509 71.6233C944.984 73.69 945.453 75.7458 945.921 77.7844C948.337 89.4503 950.581 101.45 951.185 113.067C951.246 114.432 951.258 116.058 951.18 117.501C947.763 112.65 945.283 107.129 942.797 101.768C938.863 92.7147 935.691 82.1796 935.907 72.6596ZM936.99 64.78C937.794 61.8238 939.072 59.0657 940.927 56.6032C941.617 59.3365 942.28 62.0762 942.926 64.8087C941.072 65.0603 939.216 65.2963 937.358 65.517C937.234 65.2723 937.111 65.0266 936.99 64.78ZM922.017 11.5811C921.853 9.0528 923.473 11.01 923.473 11.01C930.241 21.7332 934.923 34.6907 938.691 48.1664C937.574 49.2366 936.563 50.344 935.651 51.4839C934.353 51.6894 933.082 51.8929 931.835 52.0944C931.425 50.9303 931.024 49.7659 930.626 48.6056C928.054 40.849 925.865 32.9726 924.139 25.0507C923.185 20.6141 922.181 14.1094 922.017 11.5811ZM890.038 67.7711C886.983 67.5443 891.458 66.7392 894.425 65.9766C897.547 65.1741 900.694 64.4692 903.843 63.7899C912.477 61.9299 921.173 60.3561 929.879 58.8699C930.133 59.3522 930.391 59.8326 930.653 60.3108C929.914 62.2994 929.376 64.3392 929.011 66.4118C926.594 66.6442 924.174 66.855 921.754 67.0462C911.248 67.7705 895.18 68.1529 890.038 67.7711Z" fill="#DF4D20"/>
<path d="M111.349 117.558C115.056 114.51 120.417 112.65 124.822 113.46C128.451 114.128 131.104 115.61 132.928 117.789C134.641 119.838 135.269 122.129 135.628 123.409C136.272 125.713 134.928 128.103 132.624 128.748C130.32 129.393 127.93 128.047 127.285 125.743C126.919 124.434 126.677 123.818 126.283 123.348C125.999 123.008 125.306 122.357 123.255 121.98C121.98 121.745 119.131 122.375 116.851 124.249C114.792 125.943 114.124 127.799 114.892 129.878C115.763 132.234 118.137 133.607 122.546 135.556C124.448 136.396 126.868 137.424 128.86 138.775C130.949 140.191 133.082 142.296 133.857 145.536C134.522 148.314 134.138 151.229 132.475 153.797C130.863 156.283 128.288 158.089 125.168 159.297C119.017 161.678 109.696 162.159 96.9257 160.073C94.5647 159.688 92.963 157.461 93.3485 155.1C93.7343 152.739 95.9613 151.138 98.3222 151.524C110.507 153.513 118.012 152.777 122.041 151.218C124.01 150.456 124.864 149.611 125.204 149.086C125.491 148.643 125.583 148.185 125.432 147.553C125.346 147.194 125.096 146.689 123.998 145.945C122.802 145.134 121.228 144.446 119.044 143.481C117.112 142.627 114.547 141.523 112.191 139.798C111.311 141.489 110.224 142.941 108.948 144.119C105.59 147.22 101.039 148.23 96.9296 146.415C94.1809 145.202 92.0843 142.934 90.7636 140.027C87.1608 143.885 82.6118 146.335 77.9999 145.528C72.7648 144.611 69.9046 140.031 69.2694 134.874C69.0912 133.427 69.0666 131.869 69.202 130.209C63.6113 135.001 57.5011 140.826 51.3905 147.091C51.3068 147.306 51.2246 147.523 51.1395 147.739C43.5345 167.077 30.313 191.938 20.913 206.793C17.5061 212.177 14.3475 215.921 11.3876 217.741C9.88308 218.667 7.80206 219.477 5.51649 218.935C3.06869 218.354 1.65749 216.543 0.950082 214.932C-0.329473 212.018 -0.15576 208.061 0.529184 204.384C1.26023 200.46 2.75027 195.945 4.98426 191.393C9.43646 182.32 21.1814 167.223 34.2313 152.737C37.3843 149.237 40.6465 145.736 43.9393 142.328C45.3733 138.535 46.5332 135.064 47.3446 132.04C48.335 128.349 48.7223 125.64 48.6395 123.926C48.6337 123.806 48.6255 123.697 48.6171 123.599C47.9183 123.807 46.9115 124.239 45.5487 125.032C37.838 129.522 28.8949 136.552 21.7694 142.58C18.2327 145.572 15.191 148.277 13.035 150.232C11.9576 151.209 11.1027 151.998 10.5194 152.54C10.228 152.811 10.0038 153.02 9.85438 153.16C9.77988 153.23 9.72332 153.284 9.68641 153.319C9.6682 153.336 9.65403 153.348 9.6454 153.357C9.64113 153.361 9.63849 153.365 9.63661 153.366L9.63465 153.367C7.89938 155.014 5.15739 154.942 3.51063 153.207C1.86421 151.472 1.93597 148.731 3.67079 147.084L6.65321 150.226C3.83265 147.254 3.68061 147.092 3.67274 147.083L3.67665 147.079C3.67973 147.076 3.68385 147.071 3.68934 147.066C3.70055 147.055 3.71724 147.039 3.73817 147.02C3.78022 146.98 3.8418 146.922 3.92176 146.847C4.08205 146.696 4.31758 146.476 4.62098 146.194C5.22782 145.629 6.10955 144.817 7.21571 143.814C9.4275 141.808 12.5451 139.037 16.1737 135.967C23.3799 129.871 32.7952 122.432 41.1884 117.545C43.018 116.48 44.7825 115.664 46.4589 115.205C48.1147 114.752 49.9917 114.563 51.8339 115.14C56.1164 116.481 57.1529 120.634 57.2919 123.508C57.3817 125.367 57.1719 127.473 56.7587 129.72C62.6741 124.227 68.3573 119.443 73.3378 115.932C73.3811 115.838 73.4246 115.744 73.4686 115.65L81.3153 119.32C78.192 125.997 77.5039 130.859 77.868 133.816C78.231 136.762 79.3705 136.972 79.494 136.993C80.0302 137.087 81.9932 136.89 84.7557 133.759C86.5107 131.77 88.3444 128.825 89.9657 124.774C90.5053 122.387 91.3144 119.852 92.4159 117.182L100.617 119.904C99.9363 122.572 99.1526 125.032 98.286 127.285C97.7008 130.153 97.6907 132.449 97.9843 134.183C98.4828 137.127 99.758 138.194 100.429 138.49C101.007 138.746 101.934 138.804 103.07 137.755C104.233 136.681 105.637 134.317 106.03 130.001C105.273 124.69 108.01 120.304 111.349 117.558ZM32.705 167.653C23.2851 178.791 15.8086 188.997 12.7606 195.208C10.8355 199.131 9.61791 202.9 9.04579 205.971C8.85083 207.017 8.73779 207.951 8.69032 208.756C9.92592 207.451 11.5686 205.359 13.5927 202.16C19.2533 193.214 26.3604 180.491 32.705 167.653ZM153.606 103.692C154.776 101.605 157.416 100.862 159.503 102.032C161.589 103.202 162.332 105.842 161.163 107.928C160.074 109.87 158.881 112.094 157.655 114.49C160.604 113.223 163.554 111.955 166.503 110.688C166.849 110.539 167.18 110.396 167.527 110.247C168.583 109.794 169.776 109.778 170.843 110.203C171.91 110.629 172.764 111.462 173.218 112.517C173.671 113.572 173.687 114.765 173.262 115.832C172.836 116.899 172.004 117.754 170.949 118.207C170.602 118.356 170.27 118.499 169.924 118.648C163.965 121.209 158.004 123.771 152.045 126.332C149.079 132.925 146.402 138.234 145.238 142.741C144.634 145.081 144.624 146.599 144.891 147.567C145.098 148.312 145.55 149.074 146.969 149.818C147.153 149.914 147.769 150.119 149.129 150.022C150.444 149.927 152.108 149.573 154.08 148.949C158.023 147.702 162.619 145.56 167.096 143.172C171.54 140.802 175.718 138.27 178.795 136.322C180.33 135.351 181.584 134.53 182.45 133.954C182.883 133.667 183.219 133.44 183.444 133.287C183.557 133.211 183.641 133.153 183.697 133.114C183.725 133.096 183.746 133.081 183.759 133.072C183.765 133.068 183.77 133.065 183.772 133.063L183.775 133.062L183.962 132.94C185.911 131.736 188.485 132.26 189.801 134.167C191.159 136.136 190.664 138.833 188.695 140.192L186.235 136.626C188.612 140.07 188.692 140.188 188.694 140.193L188.686 140.198C188.681 140.202 188.674 140.207 188.665 140.213C188.647 140.225 188.622 140.243 188.59 140.265C188.524 140.31 188.428 140.374 188.306 140.457C188.06 140.624 187.703 140.865 187.247 141.168C186.335 141.775 185.026 142.632 183.429 143.643C180.24 145.66 175.868 148.312 171.173 150.817C166.51 153.304 161.375 155.727 156.694 157.208C154.355 157.949 151.983 158.502 149.751 158.662C147.565 158.82 145.122 158.63 142.947 157.49C139.648 155.762 137.456 153.183 136.542 149.877C135.689 146.794 136.081 143.549 136.85 140.574C138.341 134.802 141.957 127.745 144.818 121.27C147.702 114.744 150.946 108.436 153.606 103.692Z" fill="#DF4D20"/>
<path d="M241.492 129.608C241.492 129.607 241.493 129.605 241.494 129.598C241.496 129.584 241.499 129.557 241.504 129.518C241.513 129.44 241.528 129.313 241.545 129.145C241.578 128.808 241.62 128.308 241.648 127.696C241.703 126.455 241.697 124.84 241.481 123.223C240.983 119.51 239.775 118.057 238.483 117.733C233.759 116.548 222.343 120.584 220.408 139.931C219.939 144.622 220.552 147.607 221.442 149.465C222.291 151.234 223.515 152.251 224.952 152.855C228.153 154.2 232.708 153.561 235.735 152.251C236.976 151.715 239.548 149.991 243.075 147.276C246.452 144.676 250.322 141.472 254.003 138.334C257.677 135.202 261.131 132.165 263.668 129.907C264.936 128.779 265.973 127.848 266.692 127.199C267.052 126.875 267.332 126.622 267.522 126.45C267.616 126.365 267.688 126.299 267.736 126.255C267.76 126.233 267.779 126.217 267.791 126.206C267.797 126.201 267.801 126.196 267.804 126.194C267.805 126.193 267.806 126.192 267.807 126.192L267.808 126.191L267.977 126.044C269.747 124.589 272.366 124.763 273.927 126.476C275.538 128.244 275.41 130.984 273.642 132.595L270.725 129.393C273.493 132.432 273.635 132.587 273.642 132.595L273.636 132.6C273.632 132.603 273.628 132.608 273.621 132.613C273.608 132.625 273.588 132.643 273.563 132.666C273.512 132.712 273.437 132.78 273.34 132.868C273.145 133.045 272.859 133.304 272.493 133.634C271.762 134.293 270.711 135.238 269.427 136.38C266.861 138.663 263.358 141.744 259.623 144.928C255.895 148.106 251.901 151.415 248.359 154.141C244.968 156.751 241.566 159.167 239.176 160.201C234.943 162.033 227.779 163.44 221.596 160.841C218.341 159.473 215.457 157.019 213.631 153.21C211.847 149.489 211.217 144.786 211.788 139.069C214.017 116.78 228.711 106.351 240.591 109.329C247.601 111.087 249.517 117.97 250.066 122.072C250.373 124.363 250.372 126.526 250.302 128.086C250.266 128.875 250.212 129.532 250.165 130.001C250.142 130.236 250.121 130.425 250.105 130.562C250.096 130.63 250.089 130.685 250.083 130.727C250.08 130.747 250.078 130.765 250.076 130.778C250.075 130.785 250.075 130.791 250.074 130.796C250.074 130.799 250.074 130.801 250.073 130.803C250.073 130.804 250.072 130.805 250.072 130.806L245.783 130.204L250.072 130.809C249.738 133.177 247.547 134.827 245.179 134.493C242.813 134.16 241.163 131.973 241.492 129.608Z" fill="#DF4D20"/>
<path d="M282.015 113.753C285.58 112.88 288.347 114.27 289.997 115.685C290.792 116.368 291.366 117.078 291.741 117.606C291.932 117.875 292.082 118.112 292.192 118.297C292.247 118.39 292.292 118.471 292.329 118.538C292.334 118.547 292.338 118.557 292.343 118.566C295.51 124.048 297.277 131.776 296.122 138.441C295.53 141.854 294.113 145.291 291.385 147.898C288.588 150.57 284.811 151.988 280.287 151.988C273.197 151.988 267.876 149.612 265.289 144.821C262.874 140.348 263.638 135.151 265.263 131.171C265.861 129.708 266.936 128.012 268.063 126.441C269.241 124.798 270.668 123.027 272.155 121.366C273.635 119.713 275.238 118.096 276.778 116.798C278.142 115.648 280.032 114.239 282.015 113.753ZM284.355 122.26C284.169 122.101 284.183 122.141 284.078 122.167C284.225 122.131 283.674 122.315 282.362 123.421C281.224 124.38 279.914 125.687 278.609 127.144C277.311 128.593 276.083 130.122 275.103 131.489C274.072 132.927 273.485 133.953 273.284 134.445C272.153 137.214 272.229 139.441 272.912 140.705C273.422 141.65 274.985 143.324 280.287 143.324C282.921 143.324 284.445 142.547 285.4 141.634C286.424 140.656 287.212 139.115 287.585 136.961C288.354 132.526 287.119 126.802 284.81 122.841L284.749 122.736L284.731 122.702C284.72 122.684 284.701 122.655 284.674 122.618C284.59 122.499 284.477 122.365 284.355 122.26ZM284.695 122.63C284.695 122.631 284.695 122.632 284.696 122.633C284.697 122.635 284.699 122.638 284.7 122.64L284.695 122.63Z" fill="#DF4D20"/>
<path d="M720.406 108.741C724.177 107.809 727.096 109.29 728.838 110.797C729.681 111.526 730.29 112.284 730.687 112.849C730.889 113.136 731.047 113.389 731.163 113.584C731.22 113.682 731.268 113.768 731.306 113.837C731.312 113.849 731.318 113.86 731.324 113.871C734.773 119.886 736.691 128.37 735.439 135.655C734.799 139.378 733.272 143.094 730.353 145.905C727.362 148.786 723.304 150.334 718.397 150.334C710.645 150.334 704.966 147.718 702.225 142.601C699.661 137.813 700.455 132.207 702.22 127.849C702.857 126.277 704.017 124.427 705.256 122.685C706.546 120.872 708.111 118.915 709.743 117.077C711.367 115.248 713.122 113.465 714.8 112.038C716.302 110.762 718.321 109.256 720.406 108.741ZM723.17 117.349C722.886 117.103 722.766 117.082 722.484 117.152C722.541 117.138 721.865 117.404 720.412 118.64C719.134 119.726 717.67 121.196 716.219 122.829C714.776 124.454 713.409 126.17 712.315 127.707C711.171 129.315 710.495 130.495 710.25 131.1C708.973 134.254 709.006 136.913 709.862 138.511C710.541 139.779 712.465 141.671 718.397 141.671C721.395 141.671 723.191 140.776 724.343 139.666C725.568 138.487 726.475 136.663 726.901 134.187C727.773 129.111 726.375 122.617 723.775 118.119L723.713 118.014L723.693 117.973C723.679 117.95 723.649 117.9 723.602 117.833C723.492 117.678 723.341 117.497 723.17 117.349Z" fill="#DF4D20"/>
<path d="M486.529 112.206C490.091 111.323 492.862 112.707 494.515 114.117C495.312 114.798 495.888 115.507 496.264 116.034C496.456 116.303 496.607 116.539 496.717 116.724C496.772 116.816 496.818 116.897 496.855 116.964C496.86 116.973 496.864 116.983 496.869 116.992C500.05 122.466 501.837 130.189 500.699 136.857C500.117 140.272 498.709 143.713 495.988 146.326C493.198 149.006 489.424 150.433 484.9 150.445C477.81 150.464 472.483 148.102 469.883 143.317C467.456 138.851 468.208 133.652 469.822 129.668C470.416 128.203 471.487 126.505 472.61 124.93C473.783 123.284 475.205 121.509 476.688 119.844C478.164 118.188 479.763 116.567 481.299 115.265C482.66 114.111 484.547 112.698 486.529 112.206ZM488.891 120.707C488.704 120.548 488.719 120.589 488.613 120.615C488.76 120.579 488.21 120.763 486.9 121.873C485.765 122.836 484.458 124.145 483.157 125.606C481.864 127.059 480.64 128.59 479.663 129.96C478.635 131.401 478.051 132.428 477.851 132.921C476.728 135.692 476.81 137.919 477.495 139.181C478.008 140.125 479.575 141.795 484.877 141.781C487.512 141.774 489.033 140.994 489.986 140.078C491.008 139.097 491.792 137.555 492.159 135.4C492.917 130.962 491.666 125.242 489.347 121.287L489.285 121.182L489.268 121.148C489.257 121.13 489.238 121.101 489.211 121.064C489.126 120.945 489.013 120.812 488.891 120.707ZM489.231 121.076C489.232 121.077 489.232 121.078 489.232 121.079C489.234 121.081 489.235 121.084 489.236 121.086L489.231 121.076Z" fill="#DF4D20"/>
<path d="M281.054 109.623C283.026 108.268 285.723 108.767 287.078 110.738C288.793 113.233 292.239 114.737 298.011 114.644C303.687 114.552 310.603 112.894 317.598 110.329C319.844 109.506 322.332 110.658 323.156 112.904C323.98 115.15 322.826 117.639 320.58 118.463C313.137 121.192 305.191 123.192 298.151 123.306C291.208 123.418 284.083 121.674 279.939 115.646C278.584 113.675 279.083 110.978 281.054 109.623Z" fill="#DF4D20"/>
<path d="M333.26 113.887C338.155 108.062 343.45 104.497 348.807 104.296C354.441 104.084 358.524 107.579 360.789 112.184L361.003 112.633L361.125 112.915C361.708 114.342 361.882 116.018 361.95 117.386C362.029 118.999 361.982 120.863 361.861 122.816C361.66 126.051 361.241 129.765 360.748 133.416C362.66 130.888 364.705 128.31 366.779 125.899C368.982 123.339 371.272 120.903 373.517 118.898C375.702 116.945 378.106 115.161 380.541 114.195C383.025 113.21 386.433 112.792 389.309 115.194C390.644 116.309 391.541 117.794 392.148 119.456C392.554 118.935 392.965 118.422 393.38 117.922C396.491 114.176 400.198 110.65 404.223 108.927C406.388 108 409.01 107.559 411.494 108.808C413.885 110.011 415.033 112.234 415.609 114.01C416.731 117.462 416.635 122.175 416.373 126.23C416.235 128.37 416.029 130.55 415.836 132.572C415.796 132.982 415.759 133.385 415.721 133.779C416.044 133.327 416.378 132.864 416.717 132.386C417.961 130.634 419.305 128.738 420.668 126.902C423.303 123.355 426.367 119.537 429.373 117.289C430.84 116.192 432.915 114.985 435.344 114.978C438.228 114.969 440.394 116.609 441.73 118.787C444.96 124.05 446.837 129.917 448.392 133.707C450.184 138.075 451.394 139.353 452.649 139.724C454.87 140.38 457.728 140.007 461.216 138.442C464.66 136.897 468.225 134.405 471.53 131.635C474.808 128.886 477.68 125.989 479.742 123.766C480.77 122.658 481.587 121.727 482.143 121.079C482.42 120.756 482.632 120.504 482.771 120.336C482.84 120.252 482.892 120.189 482.924 120.149C482.94 120.129 482.952 120.115 482.959 120.107C482.962 120.103 482.965 120.1 482.966 120.098C484.467 118.237 487.193 117.945 489.055 119.446C490.917 120.948 491.21 123.674 489.709 125.536L486.336 122.818C489.669 125.504 489.709 125.537 489.708 125.538C489.708 125.539 489.706 125.54 489.706 125.541C489.704 125.542 489.703 125.545 489.701 125.547C489.697 125.552 489.691 125.558 489.685 125.566C489.672 125.582 489.654 125.605 489.631 125.632C489.586 125.688 489.521 125.767 489.437 125.868C489.27 126.069 489.029 126.357 488.72 126.718C488.101 127.439 487.209 128.455 486.095 129.656C483.874 132.05 480.735 135.221 477.096 138.273C473.482 141.303 469.224 144.344 464.763 146.346C460.346 148.328 455.217 149.516 450.194 148.032C444.556 146.366 442.06 141.097 440.377 136.995C438.563 132.574 437.24 128.291 434.789 124.064C434.719 124.113 434.643 124.166 434.562 124.227C432.698 125.621 430.308 128.453 427.622 132.069C426.325 133.814 425.041 135.628 423.78 137.403C422.536 139.154 421.304 140.886 420.168 142.377C419.063 143.829 417.9 145.253 416.789 146.29C416.247 146.797 415.515 147.405 414.637 147.841C413.804 148.254 412.135 148.849 410.251 148.101C408.458 147.389 407.633 145.922 407.28 145.067C406.913 144.175 406.762 143.255 406.687 142.529C406.534 141.052 406.593 139.274 406.707 137.54C406.824 135.759 407.02 133.749 407.212 131.747C407.406 129.716 407.599 127.66 407.727 125.672C407.984 121.699 407.917 118.694 407.453 116.973C405.373 117.925 402.804 120.134 400.045 123.457C397.855 126.094 395.746 129.185 393.873 132.317C394.017 134.837 394.056 137.002 393.999 138.862C393.89 142.428 393.428 145.254 392.428 147.408C391.295 149.847 389.519 151.307 387.409 151.958C386.508 152.236 385.671 152.327 385.093 152.373C384.293 152.438 384.252 152.418 383.828 152.465C382.992 152.557 381.931 152.456 380.9 151.862C379.88 151.274 379.279 150.429 378.948 149.72C378.372 148.485 378.414 147.257 378.457 146.665C378.556 145.283 379.004 143.675 379.527 142.153C380.62 138.971 382.526 134.806 384.892 130.549C384.943 130.457 384.995 130.365 385.046 130.273C384.921 128.685 384.759 126.937 384.547 125.013C384.374 123.448 384.096 122.603 383.913 122.183C383.86 122.201 383.8 122.222 383.734 122.247C382.711 122.653 381.21 123.642 379.289 125.359C377.427 127.023 375.408 129.154 373.345 131.55C369.223 136.341 365.143 141.939 362.067 146.384C360.536 148.597 359.268 150.506 358.384 151.858C357.943 152.533 357.597 153.07 357.364 153.434C357.247 153.617 357.158 153.756 357.099 153.849C357.07 153.895 357.048 153.93 357.034 153.952C357.027 153.963 357.022 153.971 357.019 153.977C357.018 153.979 357.016 153.981 357.016 153.982L349.095 150.85L349.095 150.849C349.096 150.849 349.096 150.847 349.096 150.845C349.097 150.842 349.098 150.837 349.099 150.83C349.102 150.816 349.106 150.795 349.112 150.766C349.123 150.708 349.14 150.62 349.162 150.506C349.205 150.277 349.269 149.938 349.351 149.505C349.513 148.636 349.744 147.386 350.013 145.869C350.552 142.83 351.242 138.733 351.854 134.479C352.469 130.207 352.993 125.855 353.215 122.281C353.326 120.489 353.354 118.978 353.297 117.813C353.232 116.495 353.073 116.123 353.131 116.251C351.88 113.529 350.396 112.905 349.132 112.953C347.41 113.018 344.193 114.341 339.892 119.46C335.399 124.807 329.024 133.322 323.717 140.582C321.076 144.195 318.72 147.468 317.025 149.839C316.177 151.023 315.495 151.983 315.025 152.644C314.79 152.975 314.609 153.231 314.486 153.405C314.425 153.491 314.378 153.558 314.347 153.602C314.331 153.623 314.32 153.64 314.312 153.651C314.308 153.656 314.305 153.661 314.303 153.663L314.301 153.667L306.557 150.128L315.621 113.584C316.197 111.262 318.547 109.847 320.868 110.423C323.19 110.999 324.606 113.348 324.03 115.67L320.335 130.563C324.787 124.558 329.582 118.264 333.26 113.887ZM387.098 147.286C387.094 147.348 387.098 147.339 387.099 147.276C387.099 147.28 387.098 147.283 387.098 147.286Z" fill="#DF4D20"/>
<path d="M575.581 130.95C576.632 128.802 579.226 127.912 581.375 128.963C583.523 130.014 584.413 132.609 583.362 134.758C578.757 144.17 570.381 149.216 562.406 148.687C558.406 148.421 554.602 146.723 551.821 143.548C549.043 140.377 547.558 136.05 547.558 130.975C547.558 126.109 547.095 122.693 546.401 120.4C545.701 118.085 544.906 117.35 544.57 117.137C544.336 116.989 543.838 116.773 542.61 117.104C541.305 117.455 539.571 118.34 537.451 119.903C528.831 126.256 518.159 140.507 511.503 151.947L503.609 148.527C503.609 148.526 503.61 148.525 503.61 148.524C503.611 148.521 503.612 148.517 503.614 148.512C503.617 148.501 503.623 148.484 503.629 148.461C503.643 148.416 503.663 148.347 503.69 148.257C503.743 148.077 503.822 147.809 503.922 147.465C504.124 146.777 504.412 145.782 504.758 144.563C505.451 142.122 506.374 138.791 507.295 135.22C508.219 131.642 509.13 127.86 509.808 124.509C510.507 121.058 510.887 118.388 510.887 116.879C510.887 113.175 510.49 111.381 510.258 110.67C510.234 110.597 510.212 110.538 510.195 110.492C508.974 109.016 508.844 106.85 510.01 105.217C511.401 103.27 514.106 102.82 516.052 104.21L513.767 107.409C516.053 104.21 516.058 104.214 516.063 104.218C516.065 104.219 516.07 104.222 516.074 104.225C516.081 104.23 516.088 104.236 516.095 104.241C516.11 104.252 516.125 104.262 516.139 104.273C516.168 104.294 516.196 104.317 516.225 104.34C516.283 104.386 516.342 104.434 516.4 104.485C516.516 104.586 516.632 104.696 516.746 104.816C516.974 105.056 517.194 105.331 517.402 105.644C517.817 106.266 518.186 107.036 518.496 107.988C519.106 109.863 519.551 112.643 519.551 116.879C519.551 119.341 519 122.768 518.299 126.228C518.234 126.553 518.164 126.88 518.094 127.211C522.729 121.506 527.66 116.357 532.311 112.929C534.865 111.047 537.594 109.484 540.355 108.74C543.192 107.975 546.362 108.014 549.211 109.823C551.96 111.567 553.664 114.491 554.693 117.891C555.728 121.312 556.221 125.665 556.221 130.975C556.221 134.356 557.189 136.529 558.337 137.84C559.483 139.148 561.08 139.917 562.979 140.043C566.803 140.297 572.217 137.826 575.581 130.95ZM510.844 111.128C510.848 111.131 510.851 111.134 510.854 111.137C510.88 111.157 510.906 111.177 510.933 111.198C510.947 111.208 510.96 111.219 510.974 111.229L511.006 111.252C510.951 111.212 510.897 111.17 510.844 111.128ZM510.701 111.01C510.703 111.012 510.705 111.014 510.708 111.016C510.721 111.027 510.735 111.038 510.749 111.05C510.733 111.037 510.716 111.024 510.701 111.01Z" fill="#DF4D20"/>
<path d="M671.673 111.215C676.52 108.254 681.437 107.299 685.534 108.614C689.801 109.983 692.616 113.741 692.369 118.29C692.135 122.613 689.233 126.562 684.703 129.405C680.57 131.998 674.763 133.92 667.105 134.74C667.276 136.304 667.73 137.735 668.424 138.93C669.852 141.388 672.487 143.326 676.771 143.597C681.205 143.877 687.606 142.352 695.986 137.135C709.263 128.869 717.165 123.118 721.609 119.178C722.599 118.3 723.381 117.539 723.995 116.893C723.852 116.906 723.713 116.919 723.582 116.933C723.289 116.965 723.05 116.997 722.89 117.021C722.81 117.032 722.751 117.042 722.716 117.048C722.7 117.051 722.689 117.051 722.684 117.052C720.329 117.461 718.087 115.887 717.675 113.531C717.263 111.175 718.84 108.931 721.197 108.519L721.907 112.578C721.217 108.634 721.198 108.521 721.2 108.518C721.2 108.518 721.203 108.517 721.204 108.517C721.207 108.516 721.211 108.516 721.215 108.515C721.223 108.514 721.233 108.512 721.244 108.51C721.268 108.506 721.298 108.501 721.335 108.495C721.409 108.483 721.511 108.468 721.636 108.449C721.885 108.413 722.231 108.366 722.645 108.321C723.458 108.232 724.603 108.142 725.82 108.162C726.973 108.182 728.508 108.302 729.95 108.805C731.351 109.294 733.584 110.502 734.305 113.238C734.969 115.757 733.916 118.072 732.83 119.725C731.662 121.503 729.839 123.459 727.356 125.66C722.36 130.09 713.965 136.147 700.565 144.49C691.274 150.274 683.073 152.675 676.224 152.242C669.225 151.8 663.897 148.385 660.933 143.281C655.135 133.3 659.169 118.854 671.673 111.215ZM682.887 116.862C681.943 116.558 679.67 116.482 676.19 118.608C672.892 120.622 670.581 123.121 669.105 125.735C674.239 124.905 677.789 123.516 680.098 122.067C683.164 120.143 683.688 118.4 683.719 117.821C683.738 117.468 683.661 117.11 682.887 116.862Z" fill="#DF4D20"/>
<path d="M830.134 118.279C833.514 113.714 837.713 110.982 842.004 110.662C846.472 110.329 850.493 112.755 851.972 117.064C853.378 121.159 852.171 125.908 849.04 130.244C846.106 134.308 841.269 138.378 834.175 142.093C834.681 142.897 835.28 143.57 835.941 144.093C837.911 145.653 841.099 146.591 845.776 145.423C850.524 144.236 856.667 140.879 863.844 134.007C868.729 129.329 873.43 125.053 876.906 121.948C878.645 120.394 880.08 119.131 881.083 118.255C881.584 117.817 881.977 117.476 882.246 117.243C882.38 117.127 882.483 117.038 882.553 116.978C882.588 116.947 882.615 116.924 882.634 116.908C882.643 116.9 882.65 116.894 882.655 116.89C882.657 116.888 882.66 116.887 882.661 116.885L882.663 116.884C884.478 115.326 887.213 115.533 888.772 117.348C890.33 119.163 890.122 121.898 888.307 123.456C888.306 123.457 888.304 123.459 888.302 123.46C888.298 123.464 888.292 123.469 888.284 123.476C888.268 123.49 888.243 123.511 888.21 123.54C888.144 123.597 888.045 123.682 887.916 123.794C887.656 124.018 887.273 124.351 886.782 124.78C885.8 125.638 884.389 126.879 882.676 128.409C879.249 131.47 874.626 135.676 869.835 140.264C861.977 147.788 854.55 152.16 847.875 153.828C841.129 155.513 835.041 154.43 830.564 150.886C821.572 143.768 821.756 129.593 830.134 118.279ZM842.647 119.301C841.657 119.375 839.522 120.158 837.096 123.434C834.603 126.801 833.258 130.054 832.744 132.978C837.463 130.184 840.367 127.458 842.017 125.172C844.136 122.238 843.967 120.426 843.779 119.877C843.664 119.543 843.457 119.241 842.647 119.301Z" fill="#DF4D20"/>
<path d="M617.771 103.471C620.164 103.471 622.103 105.411 622.103 107.803C622.103 108.261 622.013 108.774 622.009 108.804C621.974 109.025 621.927 109.305 621.871 109.627C621.757 110.277 621.592 111.178 621.385 112.29C620.969 114.519 620.37 117.651 619.639 121.442C619.332 123.029 618.999 124.731 618.649 126.533C620.614 122.67 622.667 119.221 624.798 116.377C627.323 113.006 630.242 110.094 633.613 108.537C637.252 106.857 641.204 106.876 644.947 109.06C650.195 112.121 652.726 116.689 652.982 121.756C653.09 123.878 652.797 126.004 652.232 128.069C656.134 127.289 660.433 126.682 665.141 126.32C667.526 126.137 669.608 127.922 669.792 130.308C669.975 132.693 668.191 134.774 665.806 134.958C658.444 135.524 652.314 136.714 647.335 138.173C645.26 141.187 642.814 143.936 640.352 146.16C637.295 148.923 633.63 151.412 630.232 152.049C628.806 152.316 626.714 152.459 624.856 151.364C623.815 150.751 622.953 149.796 622.491 148.557C622.051 147.376 622.083 146.236 622.262 145.335C622.599 143.63 623.576 142.141 624.564 140.98C625.618 139.741 627 138.505 628.651 137.314C631.763 135.071 636.096 132.797 641.696 130.877C643.55 127.611 644.452 124.587 644.331 122.194C644.224 120.082 643.332 118.147 640.582 116.543C639.414 115.862 638.458 115.843 637.245 116.402C635.765 117.086 633.888 118.691 631.73 121.571C627.443 127.294 623.156 136.514 619.167 147.422C611.237 169.104 605.011 195.951 602.258 210.541L602.257 210.54C602.256 210.544 602.256 210.549 602.255 210.553C601.805 212.9 599.54 214.439 597.192 213.993C594.844 213.547 593.301 211.283 593.744 208.935C593.822 208.521 593.906 208.099 593.989 207.666C596.557 194.293 601.328 170.007 605.51 148.649C607.669 137.622 609.67 127.374 611.132 119.801C611.863 116.013 612.458 112.902 612.869 110.7C613.075 109.597 613.233 108.735 613.338 108.134C613.391 107.831 613.427 107.614 613.449 107.474C613.453 107.452 613.455 107.433 613.457 107.416C613.653 105.205 615.51 103.471 617.771 103.471Z" fill="#DF4D20"/>
<path d="M746.55 105.204C747.669 103.712 749.616 103.104 751.385 103.693C753.154 104.283 754.348 105.938 754.348 107.803C754.348 108.186 754.293 108.526 754.29 108.548C754.272 108.669 754.25 108.794 754.23 108.905C754.189 109.134 754.134 109.421 754.068 109.749C753.999 110.093 753.912 110.507 753.812 110.983C756.805 108.205 760.278 106.144 764.241 105.546C768.795 104.859 773.296 106.208 777.552 109.295C782.681 113.015 784.699 118.684 784.543 124.209C784.39 129.659 782.154 135.208 778.492 139.506C774.801 143.838 769.464 147.116 763.02 147.542C757.826 147.886 752.334 146.35 746.844 142.658C746.241 145.381 745.62 148.185 744.99 151.038C740.044 173.427 734.494 198.82 732.009 211.798C731.583 214.024 729.512 215.546 727.26 215.287C725.008 215.028 723.337 213.076 723.427 210.812C724.066 194.739 728.861 164.624 737.125 140.993C738.044 138.364 739.018 135.783 740.045 133.289C740.843 129.687 741.589 126.315 742.263 123.262C741.243 124.263 740.195 125.241 739.138 126.15C736.77 128.188 734.046 130.174 731.329 131.175C726.585 132.922 720.818 133.157 716.59 133.05C714.409 132.995 712.494 132.843 711.123 132.705C710.435 132.636 709.879 132.569 709.489 132.52C709.294 132.495 709.139 132.474 709.03 132.459C708.975 132.451 708.932 132.445 708.901 132.44C708.885 132.438 708.872 132.436 708.863 132.435C708.858 132.434 708.854 132.433 708.851 132.433C708.849 132.432 708.847 132.433 708.846 132.433L708.845 132.432C708.846 132.422 708.875 132.223 709.486 128.148L708.843 132.432C706.478 132.077 704.848 129.872 705.203 127.506C705.557 125.14 707.762 123.51 710.127 123.864C710.13 123.865 710.135 123.865 710.142 123.866C710.158 123.869 710.186 123.873 710.225 123.878C710.303 123.889 710.424 123.905 710.584 123.926C710.906 123.967 711.385 124.024 711.989 124.085C713.199 124.207 714.892 124.34 716.81 124.389C720.783 124.489 725.188 124.205 728.333 123.046C729.561 122.594 731.333 121.439 733.489 119.584C735.568 117.795 737.713 115.613 739.678 113.452C741.634 111.302 743.36 109.23 744.599 107.692C745.217 106.926 745.711 106.296 746.047 105.861C746.215 105.644 746.344 105.476 746.429 105.364C746.472 105.308 746.504 105.266 746.524 105.239C746.534 105.226 746.542 105.216 746.546 105.21L746.55 105.204ZM772.465 116.308C769.632 114.253 767.377 113.833 765.533 114.111C763.58 114.406 761.369 115.593 758.933 118.084C755.54 121.554 752.294 126.956 749.297 133.69C754.468 137.941 758.948 139.129 762.448 138.898C766.174 138.651 769.454 136.756 771.898 133.888C774.371 130.985 775.789 127.304 775.883 123.966C775.975 120.702 774.832 118.024 772.465 116.308Z" fill="#DF4D20"/>
<path d="M820.219 55.7602C821.644 55.6508 823.03 56.2502 823.926 57.363C827.033 61.2245 828.712 65.4495 828.833 70.1188C828.952 74.6812 827.574 79.2951 825.256 84.0034C820.689 93.2819 811.8 104.194 800.202 117.699C800.098 117.82 799.989 117.933 799.875 118.04C799.699 118.75 799.532 119.452 799.381 120.144C798.532 124.023 798.117 127.443 798.192 130.271C798.267 133.135 798.835 135.038 799.61 136.214C801.872 139.651 804.355 141.256 806.746 141.964C809.234 142.701 812.032 142.582 814.999 141.861C817.964 141.14 820.863 139.876 823.417 138.585C824.687 137.943 825.834 137.314 826.865 136.75C827.823 136.225 828.845 135.663 829.658 135.3C831.842 134.323 834.404 135.301 835.381 137.485C836.358 139.669 835.378 142.231 833.195 143.208C832.775 143.396 832.112 143.753 831.023 144.349C830.007 144.906 828.741 145.6 827.326 146.316C824.508 147.741 820.935 149.334 817.045 150.28C813.157 151.225 808.712 151.582 804.287 150.271C799.764 148.932 795.659 145.967 792.374 140.979C790.375 137.942 789.629 134.231 789.531 130.498C789.432 126.728 789.983 122.565 790.917 118.293C792.785 109.75 796.324 100.172 800.131 91.3092C803.953 82.412 808.117 74.071 811.318 67.9659C812.92 64.9098 814.286 62.4049 815.253 60.6607C815.736 59.7886 816.121 59.1061 816.385 58.6392C816.518 58.4057 816.62 58.2254 816.69 58.103C816.725 58.0419 816.753 57.9951 816.771 57.9629C816.78 57.9471 816.787 57.9346 816.792 57.9259C816.795 57.9215 816.798 57.9177 816.799 57.9152C816.8 57.9141 816.8 57.9128 816.8 57.9123C816.801 57.9113 816.801 57.9107 820.271 59.9169L816.801 57.9103C817.516 56.6737 818.795 55.8697 820.219 55.7602ZM820.144 69.803C819.777 70.4936 819.391 71.224 818.99 71.9894C815.911 77.8606 811.948 85.7967 808.301 94.2409C812.379 88.9037 815.459 84.2895 817.483 80.1776C819.445 76.1921 820.242 73.0091 820.172 70.3442C820.168 70.1632 820.157 69.9829 820.144 69.803Z" fill="#DF4D20"/>
<path d="M66.099 103.767C62.4607 106.952 58.3093 106.062 55.5434 102.902C52.7774 99.7426 52.4444 95.5099 56.0827 92.3249C59.7209 89.1399 64.9125 89.1192 67.6784 92.2787C70.4443 95.4383 69.7372 100.582 66.099 103.767Z" fill="#DF4D20"/>
</svg>
